<?xml version="1.0" standalone="yes"?>

<svg version="1.1" viewBox="0.0 0.0 963.0 340.0" fill="none" stroke="none" stroke-linecap="square" stroke-miterlimit="10" xmlns="http://www.w3.org/2000/svg" xmlns:xlink="http://www.w3.org/1999/xlink"><clipPath id="p.0"><path d="m0 0l963.0 0l0 340.0l-963.0 0l0 -340.0z" clip-rule="nonzero"></path></clipPath><g clip-path="url(#p.0)"><path fill="#000000" fill-opacity="0.0" d="m0 0l963.46716 0l0 340.54068l-963.46716 0z" fill-rule="nonzero"></path><path fill="#000000" fill-opacity="0.0" d="m3.5170603 3.4934382l306.99213 0l0 210.23622l-306.99213 0z" fill-rule="nonzero"></path><path stroke="#000000" stroke-width="2.0" stroke-linejoin="round" stroke-linecap="butt" d="m3.5170603 3.4934382l306.99213 0l0 210.23622l-306.99213 0z" fill-rule="nonzero"></path><path fill="#000000" fill-opacity="0.0" d="m100.73753 169.63255l103.244095 0l0 24.188965l-103.244095 0z" fill-rule="nonzero"></path><path fill="#000000" d="m111.14378 196.55255l0 -13.59375l2.71875 0l3.21875 9.625q0.4375 1.34375 0.640625 2.015625q0.234375 -0.75 0.734375 -2.1875l3.25 -9.453125l2.421875 0l0 13.59375l-1.734375 0l0 -11.390625l-3.953125 11.390625l-1.625 0l-3.9375 -11.578125l0 11.578125l-1.734375 0zm21.822052 -1.21875q-0.9375 0.796875 -1.796875 1.125q-0.859375 0.3125 -1.84375 0.3125q-1.609375 0 -2.484375 -0.78125q-0.875 -0.796875 -0.875 -2.03125q0 -0.734375 0.328125 -1.328125q0.328125 -0.59375 0.859375 -0.953125q0.53125 -0.359375 1.203125 -0.546875q0.5 -0.140625 1.484375 -0.25q2.03125 -0.25 2.984375 -0.578125q0 -0.34375 0 -0.4375q0 -1.015625 -0.46875 -1.4375q-0.640625 -0.5625 -1.90625 -0.5625q-1.171875 0 -1.734375 0.40625q-0.5625 0.40625 -0.828125 1.46875l-1.640625 -0.234375q0.234375 -1.046875 0.734375 -1.6875q0.515625 -0.640625 1.46875 -0.984375q0.96875 -0.359375 2.25 -0.359375q1.265625 0 2.046875 0.296875q0.78125 0.296875 1.15625 0.75q0.375 0.453125 0.515625 1.140625q0.09375 0.421875 0.09375 1.53125l0 2.234375q0 2.328125 0.09375 2.953125q0.109375 0.609375 0.4375 1.171875l-1.75 0q-0.265625 -0.515625 -0.328125 -1.21875zm-0.140625 -3.71875q-0.90625 0.359375 -2.734375 0.625q-1.03125 0.140625 -1.453125 0.328125q-0.421875 0.1875 -0.65625 0.546875q-0.234375 0.359375 -0.234375 0.796875q0 0.671875 0.5 1.125q0.515625 0.4375 1.484375 0.4375q0.96875 0 1.71875 -0.421875q0.75 -0.4375 1.109375 -1.15625q0.265625 -0.578125 0.265625 -1.671875l0 -0.609375zm4.094467 -6.75l0 -1.90625l1.671875 0l0 1.90625l-1.671875 0zm0 11.6875l0 -9.859375l1.671875 0l0 9.859375l-1.671875 0zm4.129196 0l0 -9.859375l1.5 0l0 1.40625q1.09375 -1.625 3.140625 -1.625q0.890625 0 1.640625 0.328125q0.75 0.3125 1.109375 0.84375q0.375 0.515625 0.53125 1.21875q0.09375 0.46875 0.09375 1.625l0 6.0625l-1.671875 0l0 -6.0q0 -1.015625 -0.203125 -1.515625q-0.1875 -0.515625 -0.6875 -0.8125q-0.5 -0.296875 -1.171875 -0.296875q-1.0625 0 -1.84375 0.671875q-0.765625 0.671875 -0.765625 2.578125l0 5.375l-1.671875 0zm14.485092 0l-5.28125 -13.59375l1.953125 0l3.53125 9.875q0.4375 1.1875 0.71875 2.21875q0.3125 -1.109375 0.734375 -2.21875l3.671875 -9.875l1.84375 0l-5.328125 13.59375l-1.84375 0zm8.349823 -11.6875l0 -1.90625l1.671875 0l0 1.90625l-1.671875 0zm0 11.6875l0 -9.859375l1.671875 0l0 9.859375l-1.671875 0zm10.879196 -3.171875l1.71875 0.21875q-0.40625 1.5 -1.515625 2.34375q-1.09375 0.828125 -2.8125 0.828125q-2.15625 0 -3.421875 -1.328125q-1.265625 -1.328125 -1.265625 -3.734375q0 -2.484375 1.265625 -3.859375q1.28125 -1.375 3.328125 -1.375q1.984375 0 3.234375 1.34375q1.25 1.34375 1.25 3.796875q0 0.140625 -0.015625 0.4375l-7.34375 0q0.09375 1.625 0.921875 2.484375q0.828125 0.859375 2.0625 0.859375q0.90625 0 1.546875 -0.46875q0.65625 -0.484375 1.046875 -1.546875zm-5.484375 -2.703125l5.5 0q-0.109375 -1.234375 -0.625 -1.859375q-0.796875 -0.96875 -2.078125 -0.96875q-1.140625 0 -1.9375 0.78125q-0.78125 0.765625 -0.859375 2.046875zm10.938217 5.875l-3.015625 -9.859375l1.71875 0l1.5625 5.6875l0.59375 2.125q0.03125 -0.15625 0.5 -2.03125l1.578125 -5.78125l1.71875 0l1.46875 5.71875l0.484375 1.890625l0.578125 -1.90625l1.6875 -5.703125l1.625 0l-3.078125 9.859375l-1.734375 0l-1.578125 -5.90625l-0.375 -1.671875l-2.0 7.578125l-1.734375 0z" fill-rule="nonzero"></path><path fill="#000000" fill-opacity="0.0" d="m15.608924 23.028872l134.86615 0l0 142.89764l-134.86615 0z" fill-rule="nonzero"></path><path stroke="#000000" stroke-width="2.0" stroke-linejoin="round" stroke-linecap="butt" d="m15.608924 23.028872l134.86615 0l0 142.89764l-134.86615 0z" fill-rule="nonzero"></path><path fill="#000000" d="m45.997303 96.632065l1.796875 0.453125q-0.5625 2.21875 -2.03125 3.390625q-1.46875 1.15625 -3.59375 1.15625q-2.203125 0 -3.578125 -0.890625q-1.375 -0.90625 -2.09375 -2.59375q-0.71875 -1.703125 -0.71875 -3.65625q0 -2.125 0.796875 -3.703125q0.8125 -1.578125 2.3125 -2.390625q1.5 -0.828125 3.296875 -0.828125q2.046875 0 3.4375 1.046875q1.390625 1.03125 1.9375 2.90625l-1.765625 0.421875q-0.46875 -1.484375 -1.375 -2.15625q-0.90625 -0.6875 -2.265625 -0.6875q-1.5625 0 -2.625 0.75q-1.046875 0.75 -1.484375 2.03125q-0.421875 1.265625 -0.421875 2.609375q0 1.734375 0.5 3.03125q0.515625 1.28125 1.578125 1.921875q1.078125 0.640625 2.3125 0.640625q1.515625 0 2.5625 -0.859375q1.046875 -0.875 1.421875 -2.59375zm3.5354462 4.765625l0 -9.859375l1.5 0l0 1.5q0.578125 -1.046875 1.0625 -1.375q0.484375 -0.34375 1.078125 -0.34375q0.84375 0 1.71875 0.546875l-0.578125 1.546875q-0.609375 -0.359375 -1.234375 -0.359375q-0.546875 0 -0.984375 0.328125q-0.421875 0.328125 -0.609375 0.90625q-0.28125 0.890625 -0.28125 1.953125l0 5.15625l-1.671875 0zm12.978302 -3.171875l1.7187462 0.21875q-0.4062462 1.5 -1.5156212 2.34375q-1.09375 0.828125 -2.8125 0.828125q-2.15625 0 -3.421875 -1.328125q-1.265625 -1.328125 -1.265625 -3.734375q0 -2.484375 1.265625 -3.859375q1.28125 -1.375 3.328125 -1.375q1.984375 0 3.234375 1.34375q1.2499962 1.34375 1.2499962 3.796875q0 0.140625 -0.015625 0.4375l-7.343746 0q0.09375 1.625 0.921875 2.484375q0.828125 0.859375 2.0625 0.859375q0.90625 0 1.546875 -0.46875q0.65625 -0.484375 1.046875 -1.546875zm-5.484375 -2.703125l5.5 0q-0.109375 -1.234375 -0.625 -1.859375q-0.796875 -0.96875 -2.078125 -0.96875q-1.140625 0 -1.9375 0.78125q-0.78125 0.765625 -0.859375 2.046875zm15.547588 4.65625q-0.9375 0.796875 -1.796875 1.125q-0.859375 0.3125 -1.84375 0.3125q-1.609375 0 -2.484375 -0.78125q-0.875 -0.796875 -0.875 -2.03125q0 -0.734375 0.328125 -1.328125q0.328125 -0.59375 0.859375 -0.953125q0.53125 -0.359375 1.203125 -0.546875q0.5 -0.140625 1.484375 -0.25q2.03125 -0.25 2.984375 -0.578125q0 -0.34375 0 -0.4375q0 -1.015625 -0.46875 -1.4375q-0.640625 -0.5625 -1.90625 -0.5625q-1.171875 0 -1.734375 0.40625q-0.5625 0.40625 -0.828125 1.46875l-1.640625 -0.234375q0.234375 -1.046875 0.734375 -1.6875q0.515625 -0.640625 1.46875 -0.984375q0.96875 -0.359375 2.25 -0.359375q1.265625 0 2.046875 0.296875q0.78125 0.296875 1.15625 0.75q0.375 0.453125 0.515625 1.140625q0.09375 0.421875 0.09375 1.53125l0 2.234375q0 2.328125 0.09375 2.953125q0.109375 0.609375 0.4375 1.171875l-1.75 0q-0.265625 -0.515625 -0.328125 -1.21875zm-0.140625 -3.71875q-0.90625 0.359375 -2.734375 0.625q-1.03125 0.140625 -1.453125 0.328125q-0.421875 0.1875 -0.65625 0.546875q-0.234375 0.359375 -0.234375 0.796875q0 0.671875 0.5 1.125q0.515625 0.4375 1.484375 0.4375q0.96875 0 1.71875 -0.421875q0.75 -0.4375 1.109375 -1.15625q0.265625 -0.578125 0.265625 -1.671875l0 -0.609375zm7.7351 3.4375l0.234375 1.484375q-0.703125 0.140625 -1.2656326 0.140625q-0.90625 0 -1.40625 -0.28125q-0.5 -0.296875 -0.703125 -0.75q-0.203125 -0.46875 -0.203125 -1.984375l0 -5.65625l-1.234375 0l0 -1.3125l1.234375 0l0 -2.4375l1.65625 -1.0l0 3.4375l1.6875076 0l0 1.3125l-1.6875076 0l0 5.75q0 0.71875 0.078125 0.921875q0.09375 0.203125 0.296875 0.328125q0.203125 0.125 0.578125 0.125q0.26563263 0 0.7343826 -0.078125zm8.277054 -1.671875l1.71875 0.21875q-0.40625 1.5 -1.515625 2.34375q-1.09375 0.828125 -2.8125 0.828125q-2.15625 0 -3.421875 -1.328125q-1.265625 -1.328125 -1.265625 -3.734375q0 -2.484375 1.265625 -3.859375q1.28125 -1.375 3.328125 -1.375q1.984375 0 3.234375 1.34375q1.25 1.34375 1.25 3.796875q0 0.140625 -0.015625 0.4375l-7.34375 0q0.09375 1.625 0.921875 2.484375q0.828125 0.859375 2.0625 0.859375q0.90625 0 1.546875 -0.46875q0.65625 -0.484375 1.046875 -1.546875zm-5.484375 -2.703125l5.5 0q-0.109375 -1.234375 -0.625 -1.859375q-0.796875 -0.96875 -2.078125 -0.96875q-1.140625 0 -1.9375 0.78125q-0.78125 0.765625 -0.859375 2.046875zm13.219467 5.875l-5.28125 -13.59375l1.953125 0l3.53125 9.875q0.4375 1.1875 0.71875 2.21875q0.3125 -1.109375 0.734375 -2.21875l3.671875 -9.875l1.84375 0l-5.328125 13.59375l-1.84375 0zm8.349823 -11.6875l0 -1.90625l1.671875 0l0 1.90625l-1.671875 0zm0 11.6875l0 -9.859375l1.671875 0l0 9.859375l-1.671875 0zm10.879196 -3.171875l1.71875 0.21875q-0.40625 1.5 -1.515625 2.34375q-1.09375 0.828125 -2.8125 0.828125q-2.15625 0 -3.421875 -1.328125q-1.265625 -1.328125 -1.265625 -3.734375q0 -2.484375 1.265625 -3.859375q1.28125 -1.375 3.328125 -1.375q1.984375 0 3.234375 1.34375q1.25 1.34375 1.25 3.796875q0 0.140625 -0.015625 0.4375l-7.34375 0q0.09375 1.625 0.921875 2.484375q0.828125 0.859375 2.0625 0.859375q0.90625 0 1.546875 -0.46875q0.65625 -0.484375 1.046875 -1.546875zm-5.484375 -2.703125l5.5 0q-0.109375 -1.234375 -0.625 -1.859375q-0.796875 -0.96875 -2.078125 -0.96875q-1.140625 0 -1.9375 0.78125q-0.78125 0.765625 -0.859375 2.046875zm10.938217 5.875l-3.015625 -9.859375l1.71875 0l1.5625 5.6875l0.59375 2.125q0.03125 -0.15625 0.5 -2.03125l1.578125 -5.78125l1.71875 0l1.46875 5.71875l0.484375 1.890625l0.5781174 -1.90625l1.6875 -5.703125l1.625 0l-3.078125 9.859375l-1.7343674 0l-1.578125 -5.90625l-0.375 -1.671875l-2.0 7.578125l-1.734375 0z" fill-rule="nonzero"></path><path fill="#000000" fill-opacity="0.0" d="m162.5958 23.028872l134.86615 0l0 142.89764l-134.86615 0z" fill-rule="nonzero"></path><path stroke="#000000" stroke-width="2.0" stroke-linejoin="round" stroke-linecap="butt" d="m162.5958 23.028872l134.86615 0l0 142.89764l-134.86615 0z" fill-rule="nonzero"></path><path fill="#000000" d="m178.10231 101.39769l0 -13.59375l5.125 0q1.359375 0 2.078125 0.125q1.0 0.171875 1.671875 0.640625q0.671875 0.46875 1.078125 1.3125q0.421875 0.84375 0.421875 1.84375q0 1.734375 -1.109375 2.9375q-1.09375 1.203125 -3.984375 1.203125l-3.484375 0l0 5.53125l-1.796875 0zm1.796875 -7.140625l3.515625 0q1.75 0 2.46875 -0.640625q0.734375 -0.65625 0.734375 -1.828125q0 -0.859375 -0.4375 -1.46875q-0.421875 -0.609375 -1.125 -0.796875q-0.453125 -0.125 -1.671875 -0.125l-3.484375 0l0 4.859375zm10.412323 7.140625l0 -9.859375l1.5 0l0 1.5q0.578125 -1.046875 1.0625 -1.375q0.484375 -0.34375 1.078125 -0.34375q0.84375 0 1.71875 0.546875l-0.578125 1.546875q-0.609375 -0.359375 -1.234375 -0.359375q-0.546875 0 -0.984375 0.328125q-0.421875 0.328125 -0.609375 0.90625q-0.28125 0.890625 -0.28125 1.953125l0 5.15625l-1.671875 0zm12.978302 -3.171875l1.71875 0.21875q-0.40625 1.5 -1.515625 2.34375q-1.09375 0.828125 -2.8125 0.828125q-2.15625 0 -3.421875 -1.328125q-1.265625 -1.328125 -1.265625 -3.734375q0 -2.484375 1.265625 -3.859375q1.28125 -1.375 3.328125 -1.375q1.984375 0 3.234375 1.34375q1.25 1.34375 1.25 3.796875q0 0.140625 -0.015625 0.4375l-7.34375 0q0.09375 1.625 0.921875 2.484375q0.828125 0.859375 2.0625 0.859375q0.90625 0 1.546875 -0.46875q0.65625 -0.484375 1.046875 -1.546875zm-5.484375 -2.703125l5.5 0q-0.109375 -1.234375 -0.625 -1.859375q-0.796875 -0.96875 -2.078125 -0.96875q-1.140625 0 -1.9375 0.78125q-0.78125 0.765625 -0.859375 2.046875zm11.844467 5.875l-3.75 -9.859375l1.765625 0l2.125 5.90625q0.34375 0.953125 0.625 1.984375q0.21875 -0.78125 0.625 -1.875l2.1875 -6.015625l1.71875 0l-3.734375 9.859375l-1.5625 0zm6.609375 -11.6875l0 -1.90625l1.671875 0l0 1.90625l-1.671875 0zm0 11.6875l0 -9.859375l1.671875 0l0 9.859375l-1.671875 0zm10.879181 -3.171875l1.71875 0.21875q-0.40625 1.5 -1.515625 2.34375q-1.0937347 0.828125 -2.8124847 0.828125q-2.15625 0 -3.421875 -1.328125q-1.265625 -1.328125 -1.265625 -3.734375q0 -2.484375 1.265625 -3.859375q1.28125 -1.375 3.328125 -1.375q1.984375 0 3.2343597 1.34375q1.25 1.34375 1.25 3.796875q0 0.140625 -0.015625 0.4375l-7.3437347 0q0.09375 1.625 0.921875 2.484375q0.828125 0.859375 2.0625 0.859375q0.90625 0 1.546875 -0.46875q0.65623474 -0.484375 1.0468597 -1.546875zm-5.4843597 -2.703125l5.4999847 0q-0.109375 -1.234375 -0.62498474 -1.859375q-0.796875 -0.96875 -2.078125 -0.96875q-1.140625 0 -1.9375 0.78125q-0.78125 0.765625 -0.859375 2.046875zm10.938202 5.875l-3.015625 -9.859375l1.71875 0l1.5625 5.6875l0.59375 2.125q0.03125 -0.15625 0.5 -2.03125l1.578125 -5.78125l1.71875 0l1.46875 5.71875l0.484375 1.890625l0.578125 -1.90625l1.6875 -5.703125l1.625 0l-3.078125 9.859375l-1.734375 0l-1.578125 -5.90625l-0.375 -1.671875l-2.0 7.578125l-1.734375 0zm15.754196 0l-5.28125 -13.59375l1.953125 0l3.53125 9.875q0.4375 1.1875 0.71875 2.21875q0.3125 -1.109375 0.734375 -2.21875l3.671875 -9.875l1.84375 0l-5.328125 13.59375l-1.84375 0zm8.349823 -11.6875l0 -1.90625l1.671875 0l0 1.90625l-1.671875 0zm0 11.6875l0 -9.859375l1.671875 0l0 9.859375l-1.671875 0zm10.879211 -3.171875l1.71875 0.21875q-0.40625 1.5 -1.515625 2.34375q-1.09375 0.828125 -2.8125 0.828125q-2.15625 0 -3.421875 -1.328125q-1.265625 -1.328125 -1.265625 -3.734375q0 -2.484375 1.265625 -3.859375q1.28125 -1.375 3.328125 -1.375q1.984375 0 3.234375 1.34375q1.25 1.34375 1.25 3.796875q0 0.140625 -0.015625 0.4375l-7.34375 0q0.09375 1.625 0.921875 2.484375q0.828125 0.859375 2.0625 0.859375q0.90625 0 1.546875 -0.46875q0.65625 -0.484375 1.046875 -1.546875zm-5.484375 -2.703125l5.5 0q-0.109375 -1.234375 -0.625 -1.859375q-0.796875 -0.96875 -2.078125 -0.96875q-1.140625 0 -1.9375 0.78125q-0.78125 0.765625 -0.859375 2.046875zm10.938202 5.875l-3.015625 -9.859375l1.71875 0l1.5625 5.6875l0.59375 2.125q0.03125 -0.15625 0.5 -2.03125l1.578125 -5.78125l1.71875 0l1.46875 5.71875l0.484375 1.890625l0.578125 -1.90625l1.6875 -5.703125l1.625 0l-3.078125 9.859375l-1.734375 0l-1.578125 -5.90625l-0.375 -1.671875l-2.0 7.578125l-1.734375 0z" fill-rule="nonzero"></path><path fill="#000000" fill-opacity="0.0" d="m652.63257 3.4934382l306.99207 0l0 210.23622l-306.99207 0z" fill-rule="nonzero"></path><path stroke="#000000" stroke-width="2.0" stroke-linejoin="round" stroke-linecap="butt" d="m652.63257 3.4934382l306.99207 0l0 210.23622l-306.99207 0z" fill-rule="nonzero"></path><path fill="#000000" fill-opacity="0.0" d="m741.4829 165.91602l129.29138 0l0 31.62204l-129.29138 0z" fill-rule="nonzero"></path><path fill="#000000" d="m751.95166 192.83601l0 -13.59375l5.125 0q1.359375 0 2.078125 0.125q1.0 0.171875 1.671875 0.640625q0.671875 0.46875 1.078125 1.3125q0.421875 0.84375 0.421875 1.84375q0 1.734375 -1.109375 2.9375q-1.09375 1.203125 -3.984375 1.203125l-3.484375 0l0 5.53125l-1.796875 0zm1.796875 -7.140625l3.515625 0q1.75 0 2.46875 -0.640625q0.734375 -0.65625 0.734375 -1.828125q0 -0.859375 -0.4375 -1.46875q-0.421875 -0.609375 -1.125 -0.796875q-0.453125 -0.125 -1.671875 -0.125l-3.484375 0l0 4.859375zm10.4123535 7.140625l0 -9.859375l1.5 0l0 1.5q0.578125 -1.046875 1.0625 -1.375q0.484375 -0.34375 1.078125 -0.34375q0.84375 0 1.71875 0.546875l-0.578125 1.546875q-0.609375 -0.359375 -1.234375 -0.359375q-0.546875 0 -0.984375 0.328125q-0.421875 0.328125 -0.609375 0.90625q-0.28125 0.890625 -0.28125 1.953125l0 5.15625l-1.671875 0zm12.9782715 -3.171875l1.71875 0.21875q-0.40625 1.5 -1.515625 2.34375q-1.09375 0.828125 -2.8125 0.828125q-2.15625 0 -3.421875 -1.328125q-1.265625 -1.328125 -1.265625 -3.734375q0 -2.484375 1.265625 -3.859375q1.28125 -1.375 3.328125 -1.375q1.984375 0 3.234375 1.34375q1.25 1.34375 1.25 3.796875q0 0.140625 -0.015625 0.4375l-7.34375 0q0.09375 1.625 0.921875 2.484375q0.828125 0.859375 2.0625 0.859375q0.90625 0 1.546875 -0.46875q0.65625 -0.484375 1.046875 -1.546875zm-5.484375 -2.703125l5.5 0q-0.109375 -1.234375 -0.625 -1.859375q-0.796875 -0.96875 -2.078125 -0.96875q-1.140625 0 -1.9375 0.78125q-0.78125 0.765625 -0.859375 2.046875zm11.844482 5.875l-3.75 -9.859375l1.765625 0l2.125 5.90625q0.34375 0.953125 0.625 1.984375q0.21875 -0.78125 0.625 -1.875l2.1875 -6.015625l1.71875 0l-3.734375 9.859375l-1.5625 0zm6.609375 -11.6875l0 -1.90625l1.671875 0l0 1.90625l-1.671875 0zm0 11.6875l0 -9.859375l1.671875 0l0 9.859375l-1.671875 0zm10.879211 -3.171875l1.71875 0.21875q-0.40625 1.5 -1.515625 2.34375q-1.09375 0.828125 -2.8125 0.828125q-2.15625 0 -3.421875 -1.328125q-1.265625 -1.328125 -1.265625 -3.734375q0 -2.484375 1.265625 -3.859375q1.28125 -1.375 3.328125 -1.375q1.984375 0 3.234375 1.34375q1.25 1.34375 1.25 3.796875q0 0.140625 -0.015625 0.4375l-7.34375 0q0.09375 1.625 0.921875 2.484375q0.828125 0.859375 2.0625 0.859375q0.90625 0 1.546875 -0.46875q0.65625 -0.484375 1.046875 -1.546875zm-5.484375 -2.703125l5.5 0q-0.109375 -1.234375 -0.625 -1.859375q-0.796875 -0.96875 -2.078125 -0.96875q-1.140625 0 -1.9375 0.78125q-0.78125 0.765625 -0.859375 2.046875zm10.938232 5.875l-3.015625 -9.859375l1.71875 0l1.5625 5.6875l0.59375 2.125q0.03125 -0.15625 0.5 -2.03125l1.578125 -5.78125l1.71875 0l1.46875 5.71875l0.484375 1.890625l0.578125 -1.90625l1.6875 -5.703125l1.625 0l-3.078125 9.859375l-1.734375 0l-1.578125 -5.90625l-0.375 -1.671875l-2.0 7.578125l-1.734375 0zm15.75415 0l-5.28125 -13.59375l1.953125 0l3.53125 9.875q0.4375 1.1875 0.71875 2.21875q0.3125 -1.109375 0.734375 -2.21875l3.671875 -9.875l1.84375 0l-5.328125 13.59375l-1.84375 0zm8.3498535 -11.6875l0 -1.90625l1.671875 0l0 1.90625l-1.671875 0zm0 11.6875l0 -9.859375l1.671875 0l0 9.859375l-1.671875 0zm10.879211 -3.171875l1.71875 0.21875q-0.40625 1.5 -1.515625 2.34375q-1.09375 0.828125 -2.8125 0.828125q-2.15625 0 -3.421875 -1.328125q-1.265625 -1.328125 -1.265625 -3.734375q0 -2.484375 1.265625 -3.859375q1.28125 -1.375 3.328125 -1.375q1.984375 0 3.234375 1.34375q1.25 1.34375 1.25 3.796875q0 0.140625 -0.015625 0.4375l-7.34375 0q0.09375 1.625 0.921875 2.484375q0.828125 0.859375 2.0625 0.859375q0.90625 0 1.546875 -0.46875q0.65625 -0.484375 1.046875 -1.546875zm-5.484375 -2.703125l5.5 0q-0.109375 -1.234375 -0.625 -1.859375q-0.796875 -0.96875 -2.078125 -0.96875q-1.140625 0 -1.9375 0.78125q-0.78125 0.765625 -0.859375 2.046875zm10.938171 5.875l-3.015625 -9.859375l1.71875 0l1.5625 5.6875l0.59375 2.125q0.03125 -0.15625 0.5 -2.03125l1.578125 -5.78125l1.71875 0l1.46875 5.71875l0.484375 1.890625l0.578125 -1.90625l1.6875 -5.703125l1.625 0l-3.078125 9.859375l-1.734375 0l-1.578125 -5.90625l-0.375 -1.671875l-2.0 7.578125l-1.734375 0z" fill-rule="nonzero"></path><path fill="#000000" fill-opacity="0.0" d="m667.52496 61.603676l277.9527 0l0 39.433067l-277.9527 0z" fill-rule="nonzero"></path><path stroke="#000000" stroke-width="2.0" stroke-linejoin="round" stroke-linecap="butt" d="m667.52496 61.603676l277.9527 0l0 39.433067l-277.9527 0z" fill-rule="nonzero"></path><path fill="#000000" d="m766.9513 88.24021l0 -13.59375l2.71875 0l3.21875 9.625q0.4375 1.34375 0.640625 2.015625q0.234375 -0.75 0.734375 -2.1875l3.25 -9.453125l2.421875 0l0 13.59375l-1.734375 0l0 -11.390625l-3.953125 11.390625l-1.625 0l-3.9375 -11.578125l0 11.578125l-1.734375 0zm22.134521 -3.171875l1.71875 0.21875q-0.40625 1.5 -1.515625 2.34375q-1.09375 0.828125 -2.8125 0.828125q-2.15625 0 -3.421875 -1.328125q-1.265625 -1.328125 -1.265625 -3.734375q0 -2.484375 1.265625 -3.859375q1.28125 -1.375 3.328125 -1.375q1.984375 0 3.234375 1.34375q1.25 1.34375 1.25 3.796875q0 0.140625 -0.015625 0.4375l-7.34375 0q0.09375 1.625 0.921875 2.484375q0.828125 0.859375 2.0625 0.859375q0.90625 0 1.546875 -0.46875q0.65625 -0.484375 1.046875 -1.546875zm-5.484375 -2.703125l5.5 0q-0.109375 -1.234375 -0.625 -1.859375q-0.796875 -0.96875 -2.078125 -0.96875q-1.140625 0 -1.9375 0.78125q-0.78125 0.765625 -0.859375 2.046875zm12.766357 4.375l0.234375 1.484375q-0.703125 0.140625 -1.265625 0.140625q-0.90625 0 -1.40625 -0.28125q-0.5 -0.296875 -0.703125 -0.75q-0.203125 -0.46875 -0.203125 -1.984375l0 -5.65625l-1.234375 0l0 -1.3125l1.234375 0l0 -2.4375l1.65625 -1.0l0 3.4375l1.6875 0l0 1.3125l-1.6875 0l0 5.75q0 0.71875 0.078125 0.921875q0.09375 0.203125 0.296875 0.328125q0.203125 0.125 0.578125 0.125q0.265625 0 0.734375 -0.078125zm7.9645386 0.28125q-0.9375 0.796875 -1.796875 1.125q-0.859375 0.3125 -1.84375 0.3125q-1.609375 0 -2.484375 -0.78125q-0.875 -0.796875 -0.875 -2.03125q0 -0.734375 0.328125 -1.328125q0.328125 -0.59375 0.859375 -0.953125q0.53125 -0.359375 1.203125 -0.546875q0.5 -0.140625 1.484375 -0.25q2.03125 -0.25 2.984375 -0.578125q0 -0.34375 0 -0.4375q0 -1.015625 -0.46875 -1.4375q-0.640625 -0.5625 -1.90625 -0.5625q-1.171875 0 -1.734375 0.40625q-0.5625 0.40625 -0.828125 1.46875l-1.640625 -0.234375q0.234375 -1.046875 0.734375 -1.6875q0.515625 -0.640625 1.46875 -0.984375q0.96875 -0.359375 2.25 -0.359375q1.265625 0 2.046875 0.296875q0.78125 0.296875 1.15625 0.75q0.375 0.453125 0.515625 1.140625q0.09375 0.421875 0.09375 1.53125l0 2.234375q0 2.328125 0.09375 2.953125q0.109375 0.609375 0.4375 1.171875l-1.75 0q-0.265625 -0.515625 -0.328125 -1.21875zm-0.140625 -3.71875q-0.90625 0.359375 -2.734375 0.625q-1.03125 0.140625 -1.453125 0.328125q-0.421875 0.1875 -0.65625 0.546875q-0.234375 0.359375 -0.234375 0.796875q0 0.671875 0.5 1.125q0.515625 0.4375 1.484375 0.4375q0.96875 0 1.71875 -0.421875q0.75 -0.4375 1.109375 -1.15625q0.265625 -0.578125 0.265625 -1.671875l0 -0.609375zm8.188232 4.9375l-5.28125 -13.59375l1.953125 0l3.53125 9.875q0.4375 1.1875 0.71875 2.21875q0.3125 -1.109375 0.734375 -2.21875l3.671875 -9.875l1.84375 0l-5.328125 13.59375l-1.84375 0zm8.3497925 -11.6875l0 -1.90625l1.671875 0l0 1.90625l-1.671875 0zm0 11.6875l0 -9.859375l1.671875 0l0 9.859375l-1.671875 0zm10.879211 -3.171875l1.71875 0.21875q-0.40625 1.5 -1.515625 2.34375q-1.09375 0.828125 -2.8125 0.828125q-2.15625 0 -3.421875 -1.328125q-1.265625 -1.328125 -1.265625 -3.734375q0 -2.484375 1.265625 -3.859375q1.28125 -1.375 3.328125 -1.375q1.984375 0 3.234375 1.34375q1.25 1.34375 1.25 3.796875q0 0.140625 -0.015625 0.4375l-7.34375 0q0.09375 1.625 0.921875 2.484375q0.828125 0.859375 2.0625 0.859375q0.90625 0 1.546875 -0.46875q0.65625 -0.484375 1.046875 -1.546875zm-5.484375 -2.703125l5.5 0q-0.109375 -1.234375 -0.625 -1.859375q-0.796875 -0.96875 -2.078125 -0.96875q-1.140625 0 -1.9375 0.78125q-0.78125 0.765625 -0.859375 2.046875zm10.938232 5.875l-3.015625 -9.859375l1.71875 0l1.5625 5.6875l0.59375 2.125q0.03125 -0.15625 0.5 -2.03125l1.578125 -5.78125l1.71875 0l1.46875 5.71875l0.484375 1.890625l0.578125 -1.90625l1.6875 -5.703125l1.625 0l-3.078125 9.859375l-1.734375 0l-1.578125 -5.90625l-0.375 -1.671875l-2.0 7.578125l-1.734375 0z" fill-rule="nonzero"></path><path fill="#000000" fill-opacity="0.0" d="m667.52496 112.45407l277.9527 0l0 53.448822l-277.9527 0z" fill-rule="nonzero"></path><path stroke="#000000" stroke-width="2.0" stroke-linejoin="round" stroke-linecap="butt" d="m667.52496 112.45407l277.9527 0l0 53.448822l-277.9527 0z" fill-rule="nonzero"></path><path fill="#000000" d="m773.0631 146.09848l0 -12.0l-4.46875 0l0 -1.59375l10.765625 0l0 1.59375l-4.5 0l0 12.0l-1.796875 0zm14.474121 -3.171875l1.71875 0.21875q-0.40625 1.5 -1.515625 2.34375q-1.09375 0.828125 -2.8125 0.828125q-2.15625 0 -3.421875 -1.328125q-1.265625 -1.328125 -1.265625 -3.734375q0 -2.484375 1.265625 -3.859375q1.28125 -1.375 3.328125 -1.375q1.984375 0 3.234375 1.34375q1.25 1.34375 1.25 3.796875q0 0.140625 -0.015625 0.4375l-7.34375 0q0.09375 1.625 0.921875 2.484375q0.828125 0.859375 2.0625 0.859375q0.90625 0 1.546875 -0.46875q0.65625 -0.484375 1.046875 -1.546875zm-5.484375 -2.703125l5.5 0q-0.109375 -1.234375 -0.625 -1.859375q-0.796875 -0.96875 -2.078125 -0.96875q-1.140625 0 -1.9375 0.78125q-0.78125 0.765625 -0.859375 2.046875zm8.000671 5.875l3.59375 -5.125l-3.328125 -4.734375l2.09375 0l1.515625 2.3125q0.421875 0.65625 0.671875 1.109375q0.421875 -0.609375 0.765625 -1.09375l1.65625 -2.328125l1.984375 0l-3.390625 4.640625l3.65625 5.21875l-2.046875 0l-2.03125 -3.0625l-0.53125 -0.828125l-2.59375 3.890625l-2.015625 0zm14.09375 -1.5l0.234375 1.484375q-0.703125 0.140625 -1.265625 0.140625q-0.90625 0 -1.40625 -0.28125q-0.5 -0.296875 -0.703125 -0.75q-0.203125 -0.46875 -0.203125 -1.984375l0 -5.65625l-1.234375 0l0 -1.3125l1.234375 0l0 -2.4375l1.65625 -1.0l0 3.4375l1.6875 0l0 1.3125l-1.6875 0l0 5.75q0 0.71875 0.078125 0.921875q0.09375 0.203125 0.296875 0.328125q0.203125 0.125 0.578125 0.125q0.265625 0 0.734375 -0.078125zm5.6364746 1.5l-5.28125 -13.59375l1.953125 0l3.53125 9.875q0.4375 1.1875 0.71875 2.21875q0.3125 -1.109375 0.734375 -2.21875l3.671875 -9.875l1.84375 0l-5.328125 13.59375l-1.84375 0zm8.3497925 -11.6875l0 -1.90625l1.671875 0l0 1.90625l-1.671875 0zm0 11.6875l0 -9.859375l1.671875 0l0 9.859375l-1.671875 0zm10.879211 -3.171875l1.71875 0.21875q-0.40625 1.5 -1.515625 2.34375q-1.09375 0.828125 -2.8125 0.828125q-2.15625 0 -3.421875 -1.328125q-1.265625 -1.328125 -1.265625 -3.734375q0 -2.484375 1.265625 -3.859375q1.28125 -1.375 3.328125 -1.375q1.984375 0 3.234375 1.34375q1.25 1.34375 1.25 3.796875q0 0.140625 -0.015625 0.4375l-7.34375 0q0.09375 1.625 0.921875 2.484375q0.828125 0.859375 2.0625 0.859375q0.90625 0 1.546875 -0.46875q0.65625 -0.484375 1.046875 -1.546875zm-5.484375 -2.703125l5.5 0q-0.109375 -1.234375 -0.625 -1.859375q-0.796875 -0.96875 -2.078125 -0.96875q-1.140625 0 -1.9375 0.78125q-0.78125 0.765625 -0.859375 2.046875zm10.938232 5.875l-3.015625 -9.859375l1.71875 0l1.5625 5.6875l0.59375 2.125q0.03125 -0.15625 0.5 -2.03125l1.578125 -5.78125l1.71875 0l1.46875 5.71875l0.484375 1.890625l0.578125 -1.90625l1.6875 -5.703125l1.625 0l-3.078125 9.859375l-1.734375 0l-1.578125 -5.90625l-0.375 -1.671875l-2.0 7.578125l-1.734375 0z" fill-rule="nonzero"></path><path fill="#000000" fill-opacity="0.0" d="m331.51706 3.4934382l306.9921 0l0 210.23622l-306.9921 0z" fill-rule="nonzero"></path><path stroke="#000000" stroke-width="2.0" stroke-linejoin="round" stroke-linecap="butt" d="m331.51706 3.4934382l306.9921 0l0 210.23622l-306.9921 0z" fill-rule="nonzero"></path><path fill="#000000" fill-opacity="0.0" d="m425.2021 169.63255l119.62207 0l0 24.188965l-119.62207 0z" fill-rule="nonzero"></path><path fill="#000000" d="m445.37396 191.78693l1.796875 0.453125q-0.5625 2.21875 -2.03125 3.390625q-1.46875 1.15625 -3.59375 1.15625q-2.203125 0 -3.578125 -0.890625q-1.375 -0.90625 -2.09375 -2.59375q-0.71875 -1.703125 -0.71875 -3.65625q0 -2.125 0.796875 -3.703125q0.8125 -1.578125 2.3125 -2.390625q1.5 -0.828125 3.296875 -0.828125q2.046875 0 3.4375 1.046875q1.390625 1.03125 1.9375 2.90625l-1.765625 0.421875q-0.46875 -1.484375 -1.375 -2.15625q-0.90625 -0.6875 -2.265625 -0.6875q-1.5625 0 -2.625 0.75q-1.046875 0.75 -1.484375 2.03125q-0.421875 1.265625 -0.421875 2.609375q0 1.734375 0.5 3.03125q0.515625 1.28125 1.578125 1.921875q1.078125 0.640625 2.3125 0.640625q1.515625 0 2.5625 -0.859375q1.046875 -0.875 1.421875 -2.59375zm3.5354614 4.765625l0 -9.859375l1.5 0l0 1.5q0.578125 -1.046875 1.0625 -1.375q0.484375 -0.34375 1.078125 -0.34375q0.84375 0 1.71875 0.546875l-0.578125 1.546875q-0.609375 -0.359375 -1.234375 -0.359375q-0.546875 0 -0.984375 0.328125q-0.421875 0.328125 -0.609375 0.90625q-0.28125 0.890625 -0.28125 1.953125l0 5.15625l-1.671875 0zm12.978302 -3.171875l1.71875 0.21875q-0.40625 1.5 -1.515625 2.34375q-1.09375 0.828125 -2.8125 0.828125q-2.15625 0 -3.421875 -1.328125q-1.265625 -1.328125 -1.265625 -3.734375q0 -2.484375 1.265625 -3.859375q1.28125 -1.375 3.328125 -1.375q1.984375 0 3.234375 1.34375q1.25 1.34375 1.25 3.796875q0 0.140625 -0.015625 0.4375l-7.34375 0q0.09375 1.625 0.921875 2.484375q0.828125 0.859375 2.0625 0.859375q0.90625 0 1.546875 -0.46875q0.65625 -0.484375 1.046875 -1.546875zm-5.484375 -2.703125l5.5 0q-0.109375 -1.234375 -0.625 -1.859375q-0.796875 -0.96875 -2.078125 -0.96875q-1.140625 0 -1.9375 0.78125q-0.78125 0.765625 -0.859375 2.046875zm15.547577 4.65625q-0.9375 0.796875 -1.796875 1.125q-0.859375 0.3125 -1.84375 0.3125q-1.609375 0 -2.484375 -0.78125q-0.875 -0.796875 -0.875 -2.03125q0 -0.734375 0.328125 -1.328125q0.328125 -0.59375 0.859375 -0.953125q0.53125 -0.359375 1.203125 -0.546875q0.5 -0.140625 1.484375 -0.25q2.03125 -0.25 2.984375 -0.578125q0 -0.34375 0 -0.4375q0 -1.015625 -0.46875 -1.4375q-0.640625 -0.5625 -1.90625 -0.5625q-1.171875 0 -1.734375 0.40625q-0.5625 0.40625 -0.828125 1.46875l-1.640625 -0.234375q0.234375 -1.046875 0.734375 -1.6875q0.515625 -0.640625 1.46875 -0.984375q0.96875 -0.359375 2.25 -0.359375q1.265625 0 2.046875 0.296875q0.78125 0.296875 1.15625 0.75q0.375 0.453125 0.515625 1.140625q0.09375 0.421875 0.09375 1.53125l0 2.234375q0 2.328125 0.09375 2.953125q0.109375 0.609375 0.4375 1.171875l-1.75 0q-0.265625 -0.515625 -0.328125 -1.21875zm-0.140625 -3.71875q-0.90625 0.359375 -2.734375 0.625q-1.03125 0.140625 -1.453125 0.328125q-0.421875 0.1875 -0.65625 0.546875q-0.234375 0.359375 -0.234375 0.796875q0 0.671875 0.5 1.125q0.515625 0.4375 1.484375 0.4375q0.96875 0 1.71875 -0.421875q0.75 -0.4375 1.109375 -1.15625q0.265625 -0.578125 0.265625 -1.671875l0 -0.609375zm7.7351074 3.4375l0.234375 1.484375q-0.703125 0.140625 -1.265625 0.140625q-0.90625 0 -1.40625 -0.28125q-0.5 -0.296875 -0.703125 -0.75q-0.203125 -0.46875 -0.203125 -1.984375l0 -5.65625l-1.234375 0l0 -1.3125l1.234375 0l0 -2.4375l1.65625 -1.0l0 3.4375l1.6875 0l0 1.3125l-1.6875 0l0 5.75q0 0.71875 0.078125 0.921875q0.09375 0.203125 0.296875 0.328125q0.203125 0.125 0.578125 0.125q0.265625 0 0.734375 -0.078125zm8.277039 -1.671875l1.71875 0.21875q-0.40625 1.5 -1.515625 2.34375q-1.09375 0.828125 -2.8125 0.828125q-2.15625 0 -3.421875 -1.328125q-1.265625 -1.328125 -1.265625 -3.734375q0 -2.484375 1.265625 -3.859375q1.28125 -1.375 3.328125 -1.375q1.984375 0 3.234375 1.34375q1.25 1.34375 1.25 3.796875q0 0.140625 -0.015625 0.4375l-7.34375 0q0.09375 1.625 0.921875 2.484375q0.828125 0.859375 2.0625 0.859375q0.90625 0 1.546875 -0.46875q0.65625 -0.484375 1.046875 -1.546875zm-5.484375 -2.703125l5.5 0q-0.109375 -1.234375 -0.625 -1.859375q-0.796875 -0.96875 -2.078125 -0.96875q-1.140625 0 -1.9375 0.78125q-0.78125 0.765625 -0.859375 2.046875zm13.219482 5.875l-5.28125 -13.59375l1.953125 0l3.53125 9.875q0.4375 1.1875 0.71875 2.21875q0.3125 -1.109375 0.734375 -2.21875l3.671875 -9.875l1.84375 0l-5.328125 13.59375l-1.84375 0zm8.349823 -11.6875l0 -1.90625l1.671875 0l0 1.90625l-1.671875 0zm0 11.6875l0 -9.859375l1.671875 0l0 9.859375l-1.671875 0zm10.879181 -3.171875l1.71875 0.21875q-0.40625 1.5 -1.515625 2.34375q-1.09375 0.828125 -2.8125 0.828125q-2.15625 0 -3.421875 -1.328125q-1.265625 -1.328125 -1.265625 -3.734375q0 -2.484375 1.265625 -3.859375q1.28125 -1.375 3.328125 -1.375q1.984375 0 3.234375 1.34375q1.25 1.34375 1.25 3.796875q0 0.140625 -0.015625 0.4375l-7.34375 0q0.09375 1.625 0.921875 2.484375q0.828125 0.859375 2.0625 0.859375q0.90625 0 1.546875 -0.46875q0.65625 -0.484375 1.046875 -1.546875zm-5.484375 -2.703125l5.5 0q-0.109375 -1.234375 -0.625 -1.859375q-0.796875 -0.96875 -2.078125 -0.96875q-1.140625 0 -1.9375 0.78125q-0.78125 0.765625 -0.859375 2.046875zm10.938232 5.875l-3.015625 -9.859375l1.71875 0l1.5625 5.6875l0.59375 2.125q0.03125 -0.15625 0.5 -2.03125l1.578125 -5.78125l1.71875 0l1.46875 5.71875l0.484375 1.890625l0.578125 -1.90625l1.6875 -5.703125l1.625 0l-3.078125 9.859375l-1.734375 0l-1.578125 -5.90625l-0.375 -1.671875l-2.0 7.578125l-1.734375 0z" fill-rule="nonzero"></path><path fill="#000000" fill-opacity="0.0" d="m345.25986 16.45407l277.95273 0l0 33.732285l-277.95273 0z" fill-rule="nonzero"></path><path stroke="#000000" stroke-width="1.0" stroke-linejoin="round" stroke-linecap="butt" stroke-dasharray="4.0,3.0" d="m345.25986 16.45407l277.95273 0l0 33.732285l-277.95273 0z" fill-rule="nonzero"></path><path fill="#000000" d="m448.10712 43.374065l2.515625 -12.046873l-4.46875 0l0.328125 -1.546875l10.703125 0l-0.3125 1.546875l-4.4375 0l-2.515625 12.046873l-1.8125 0zm10.099091 -11.703123l0.40625 -1.890625l1.65625 0l-0.390625 1.890625l-1.671875 0zm-2.453125 11.703123l2.0625 -9.859375l1.6875 0l-2.0625 9.859375l-1.6875 0zm8.144836 -1.359375l-0.28125 1.375q-0.609375 0.15625 -1.171875 0.15625q-1.0 0 -1.59375 -0.5q-0.453125 -0.375 -0.453125 -1.015625q0 -0.3125 0.25 -1.484375l1.1875 -5.71875l-1.328125 0l0.28125 -1.3125l1.328125 0l0.5 -2.421873l1.921875 -1.15625l-0.75 3.578123l1.65625 0l-0.28125 1.3125l-1.640625 0l-1.140625 5.4375q-0.21875 1.046875 -0.21875 1.25q0 0.296875 0.171875 0.453125q0.171875 0.15625 0.5625 0.15625q0.5625 0 1.0 -0.109375zm1.1207886 1.359375l2.84375 -13.593748l1.671875 0l-2.828125 13.593748l-1.6875 0zm11.519836 -3.34375l1.625 0.15625q-0.359375 1.21875 -1.625 2.3125q-1.265625 1.09375 -3.015625 1.09375q-1.09375 0 -2.015625 -0.5q-0.90625 -0.5 -1.390625 -1.46875q-0.46875 -0.96875 -0.46875 -2.203125q0 -1.609375 0.75 -3.125q0.75 -1.515625 1.9375 -2.25q1.1875 -0.75 2.5625 -0.75q1.765625 0 2.8125 1.09375q1.0625 1.09375 1.0625 2.984375q0 0.734375 -0.140625 1.484375l-7.25 0q-0.03125 0.296875 -0.03125 0.53125q0 1.375 0.625 2.109375q0.640625 0.71875 1.5625 0.71875q0.859375 0 1.6875 -0.5625q0.84375 -0.5625 1.3125 -1.625zm-4.890625 -2.453125l5.53125 0q0.015625 -0.25 0.015625 -0.359375q0 -1.265625 -0.640625 -1.9375q-0.625 -0.671875 -1.625 -0.671875q-1.0625 0 -1.953125 0.75q-0.890625 0.734375 -1.328125 2.21875zm15.590271 -5.906248l0.40625 -1.890625l1.65625 0l-0.390625 1.890625l-1.671875 0zm-2.453125 11.703123l2.0625 -9.859375l1.6875 0l-2.0625 9.859375l-1.6875 0zm4.2073364 0l2.0625 -9.859375l1.53125 0l-0.375 1.71875q1.0 -1.0 1.859375 -1.46875q0.859375 -0.46875 1.765625 -0.46875q1.203125 0 1.875 0.65625q0.6875 0.640625 0.6875 1.734375q0 0.546875 -0.25 1.71875l-1.25 5.96875l-1.671875 0l1.3125 -6.25q0.1875 -0.90625 0.1875 -1.34375q0 -0.484375 -0.34375 -0.78125q-0.328125 -0.3125 -0.96875 -0.3125q-1.296875 0 -2.3125 0.921875q-1.0 0.921875 -1.46875 3.1875l-0.953125 4.578125l-1.6875 0zm9.563202 3.78125l2.84375 -13.640625l1.546875 0l-0.28125 1.375q0.859375 -0.890625 1.53125 -1.234375q0.6875 -0.359375 1.453125 -0.359375q1.40625 0 2.328125 1.03125q0.9375 1.015625 0.9375 2.9375q0 1.53125 -0.515625 2.796875q-0.515625 1.265625 -1.265625 2.046875q-0.734375 0.765625 -1.5 1.125q-0.75 0.359375 -1.546875 0.359375q-1.765625 0 -2.75 -1.796875l-1.109375 5.359375l-1.671875 0zm3.3125 -7.8125q0 1.109375 0.15625 1.53125q0.234375 0.609375 0.765625 0.984375q0.53125 0.359375 1.21875 0.359375q1.453125 0 2.34375 -1.625q0.890625 -1.625 0.890625 -3.328125q0 -1.25 -0.609375 -1.921875q-0.59375 -0.6875 -1.484375 -0.6875q-0.640625 0 -1.1875 0.34375q-0.546875 0.328125 -1.015625 1.0q-0.46875 0.671875 -0.78125 1.65625q-0.296875 0.96875 -0.296875 1.6875zm14.610107 2.25q-1.78125 2.0 -3.625 2.0q-1.140625 0 -1.84375 -0.640625q-0.703125 -0.65625 -0.703125 -1.609375q0 -0.625 0.3125 -2.140625l1.1875 -5.6875l1.6875 0l-1.328125 6.3125q-0.15625 0.78125 -0.15625 1.21875q0 0.5625 0.328125 0.875q0.34375 0.296875 1.0 0.296875q0.703125 0 1.375 -0.34375q0.671875 -0.34375 1.15625 -0.921875q0.5 -0.578125 0.796875 -1.375q0.203125 -0.515625 0.484375 -1.796875l0.890625 -4.265625l1.671875 0l-2.0625 9.859375l-1.546875 0l0.375 -1.78125zm7.5787964 0.421875l-0.28125 1.375q-0.609375 0.15625 -1.171875 0.15625q-1.0 0 -1.59375 -0.5q-0.453125 -0.375 -0.453125 -1.015625q0 -0.3125 0.25 -1.484375l1.1875 -5.71875l-1.328125 0l0.28125 -1.3125l1.328125 0l0.5 -2.421873l1.921875 -1.15625l-0.75 3.578123l1.65625 0l-0.28125 1.3125l-1.640625 0l-1.140625 5.4375q-0.21875 1.046875 -0.21875 1.25q0 0.296875 0.171875 0.453125q0.171875 0.15625 0.5625 0.15625q0.5625 0 1.0 -0.109375z" fill-rule="nonzero"></path><path fill="#000000" fill-opacity="0.0" d="m345.25986 64.45407l277.95273 0l0 33.732285l-277.95273 0z" fill-rule="nonzero"></path><path stroke="#000000" stroke-width="1.0" stroke-linejoin="round" stroke-linecap="butt" stroke-dasharray="4.0,3.0" d="m345.25986 64.45407l277.95273 0l0 33.732285l-277.95273 0z" fill-rule="nonzero"></path><path fill="#000000" d="m444.99167 91.37407l2.515625 -12.046875l-4.46875 0l0.328125 -1.546875l10.703125 0l-0.3125 1.546875l-4.4375 0l-2.515625 12.046875l-1.8125 0zm14.364716 -1.21875q-0.875 0.75 -1.6875 1.09375q-0.8125 0.34375 -1.71875 0.34375q-1.375 0 -2.21875 -0.796875q-0.828125 -0.796875 -0.828125 -2.0625q0 -0.8125 0.375 -1.453125q0.390625 -0.640625 1.0 -1.015625q0.625 -0.390625 1.53125 -0.5625q0.5625 -0.109375 2.140625 -0.171875q1.578125 -0.0625 2.265625 -0.328125q0.203125 -0.6875 0.203125 -1.140625q0 -0.59375 -0.4375 -0.921875q-0.578125 -0.46875 -1.703125 -0.46875q-1.046875 0 -1.734375 0.46875q-0.671875 0.46875 -0.96875 1.328125l-1.703125 -0.140625q0.515625 -1.46875 1.640625 -2.25q1.140625 -0.78125 2.859375 -0.78125q1.828125 0 2.890625 0.875q0.8125 0.65625 0.8125 1.6875q0 0.796875 -0.234375 1.828125l-0.546875 2.453125q-0.25 1.171875 -0.25 1.890625q0 0.46875 0.203125 1.34375l-1.703125 0q-0.140625 -0.484375 -0.1875 -1.21875zm0.609375 -3.765625q-0.34375 0.125 -0.75 0.203125q-0.40625 0.078125 -1.34375 0.15625q-1.46875 0.140625 -2.078125 0.34375q-0.59375 0.1875 -0.90625 0.625q-0.3125 0.4375 -0.3125 0.96875q0 0.703125 0.484375 1.15625q0.5 0.453125 1.390625 0.453125q0.84375 0 1.609375 -0.4375q0.765625 -0.4375 1.203125 -1.21875q0.453125 -0.796875 0.703125 -2.25zm3.0163574 5.875l1.703125 0.15625q-0.015625 0.578125 0.140625 0.859375q0.15625 0.296875 0.5 0.453125q0.453125 0.203125 1.171875 0.203125q1.53125 0 2.203125 -0.796875q0.4375 -0.515625 0.796875 -2.296875l0.171875 -0.796875q-1.3125 1.328125 -2.78125 1.328125q-1.5 0 -2.515625 -1.09375q-1.0 -1.109375 -1.0 -3.125q0 -1.65625 0.796875 -3.046875q0.796875 -1.390625 1.890625 -2.09375q1.09375 -0.71875 2.25 -0.71875q1.9375 0 2.984375 1.84375l0.34375 -1.625l1.53125 0l-1.984375 9.515625q-0.3125 1.5625 -0.84375 2.4375q-0.53125 0.890625 -1.484375 1.359375q-0.9375 0.484375 -2.171875 0.484375q-1.1875 0 -2.046875 -0.3125q-0.84375 -0.296875 -1.28125 -0.890625q-0.421875 -0.578125 -0.421875 -1.34375q0 -0.234375 0.046875 -0.5zm2.109375 -5.25q0 1.015625 0.1875 1.515625q0.28125 0.71875 0.796875 1.09375q0.515625 0.375 1.140625 0.375q0.828125 0 1.640625 -0.578125q0.828125 -0.578125 1.328125 -1.796875q0.5 -1.21875 0.5 -2.3125q0 -1.21875 -0.671875 -1.9375q-0.671875 -0.71875 -1.65625 -0.71875q-0.625 0 -1.203125 0.328125q-0.5625 0.328125 -1.0625 1.0q-0.5 0.671875 -0.75 1.609375q-0.25 0.9375 -0.25 1.421875zm8.516357 0.984375l1.6875 -0.09375q0 0.71875 0.21875 1.234375q0.21875 0.515625 0.8125 0.84375q0.609375 0.3125 1.40625 0.3125q1.109375 0 1.671875 -0.4375q0.5625 -0.453125 0.5625 -1.046875q0 -0.4375 -0.34375 -0.828125q-0.34375 -0.390625 -1.671875 -0.953125q-1.328125 -0.578125 -1.703125 -0.8125q-0.625 -0.375 -0.9375 -0.890625q-0.3125 -0.515625 -0.3125 -1.1875q0 -1.171875 0.921875 -2.0q0.9375 -0.84375 2.609375 -0.84375q1.84375 0 2.8125 0.859375q0.96875 0.859375 1.015625 2.265625l-1.640625 0.109375q-0.046875 -0.890625 -0.640625 -1.40625q-0.59375 -0.53125 -1.671875 -0.53125q-0.875 0 -1.359375 0.40625q-0.484375 0.390625 -0.484375 0.859375q0 0.46875 0.421875 0.8125q0.28125 0.25 1.4375 0.75q1.9375 0.828125 2.4375 1.3125q0.796875 0.765625 0.796875 1.875q0 0.734375 -0.453125 1.4375q-0.453125 0.703125 -1.375 1.125q-0.921875 0.421875 -2.171875 0.421875q-1.703125 0 -2.90625 -0.84375q-1.203125 -0.84375 -1.140625 -2.75zm16.745789 -8.328125l0.40625 -1.890625l1.65625 0l-0.390625 1.890625l-1.671875 0zm-2.453125 11.703125l2.0625 -9.859375l1.6875 0l-2.0625 9.859375l-1.6875 0zm4.2073364 0l2.0625 -9.859375l1.53125 0l-0.375 1.71875q1.0 -1.0 1.859375 -1.46875q0.859375 -0.46875 1.765625 -0.46875q1.203125 0 1.875 0.65625q0.6875 0.640625 0.6875 1.734375q0 0.546875 -0.25 1.71875l-1.25 5.96875l-1.671875 0l1.3125 -6.25q0.1875 -0.90625 0.1875 -1.34375q0 -0.484375 -0.34375 -0.78125q-0.328125 -0.3125 -0.96875 -0.3125q-1.296875 0 -2.3125 0.921875q-1.0 0.921875 -1.46875 3.1875l-0.953125 4.578125l-1.6875 0zm9.563202 3.78125l2.84375 -13.640625l1.546875 0l-0.28125 1.375q0.859375 -0.890625 1.53125 -1.234375q0.6875 -0.359375 1.453125 -0.359375q1.40625 0 2.328125 1.03125q0.9374695 1.015625 0.9374695 2.9375q0 1.53125 -0.5155945 2.796875q-0.515625 1.265625 -1.265625 2.046875q-0.734375 0.765625 -1.5 1.125q-0.75 0.359375 -1.546875 0.359375q-1.765625 0 -2.75 -1.796875l-1.109375 5.359375l-1.671875 0zm3.3125 -7.8125q0 1.109375 0.15625 1.53125q0.234375 0.609375 0.765625 0.984375q0.53125 0.359375 1.21875 0.359375q1.453125 0 2.34375 -1.625q0.890625 -1.625 0.890625 -3.328125q0 -1.25 -0.609375 -1.921875q-0.59375 -0.6875 -1.484375 -0.6875q-0.640625 0 -1.1875 0.34375q-0.546875 0.328125 -1.015625 1.0q-0.46875 0.671875 -0.78125 1.65625q-0.296875 0.96875 -0.296875 1.6875zm14.610077 2.25q-1.78125 2.0 -3.625 2.0q-1.140625 0 -1.84375 -0.640625q-0.703125 -0.65625 -0.703125 -1.609375q0 -0.625 0.3125 -2.140625l1.1875 -5.6875l1.6875 0l-1.328125 6.3125q-0.15625 0.78125 -0.15625 1.21875q0 0.5625 0.328125 0.875q0.34375 0.296875 1.0 0.296875q0.703125 0 1.375 -0.34375q0.671875 -0.34375 1.15625 -0.921875q0.5 -0.578125 0.796875 -1.375q0.203125 -0.515625 0.484375 -1.796875l0.890625 -4.265625l1.671875 0l-2.0625 9.859375l-1.546875 0l0.375 -1.78125zm7.5788574 0.421875l-0.28125 1.375q-0.609375 0.15625 -1.171875 0.15625q-1.0 0 -1.59375 -0.5q-0.453125 -0.375 -0.453125 -1.015625q0 -0.3125 0.25 -1.484375l1.1875 -5.71875l-1.328125 0l0.28125 -1.3125l1.328125 0l0.5 -2.421875l1.921875 -1.15625l-0.75 3.578125l1.65625 0l-0.28125 1.3125l-1.640625 0l-1.140625 5.4375q-0.21875 1.046875 -0.21875 1.25q0 0.296875 0.171875 0.453125q0.171875 0.15625 0.5625 0.15625q0.5625 0 1.0 -0.109375z" fill-rule="nonzero"></path><path fill="#000000" fill-opacity="0.0" d="m345.25986 112.45407l277.95273 0l0 57.16536l-277.95273 0z" fill-rule="nonzero"></path><path stroke="#000000" stroke-width="1.0" stroke-linejoin="round" stroke-linecap="butt" stroke-dasharray="4.0,3.0" d="m345.25986 112.45407l277.95273 0l0 57.16536l-277.95273 0z" fill-rule="nonzero"></path><path fill="#000000" d="m434.11038 147.95674l2.515625 -12.046875l-4.46875 0l0.328125 -1.546875l10.703125 0l-0.3125 1.546875l-4.4375 0l-2.515625 12.046875l-1.8125 0zm14.958466 -3.34375l1.625 0.15625q-0.359375 1.21875 -1.625 2.3125q-1.265625 1.09375 -3.015625 1.09375q-1.09375 0 -2.015625 -0.5q-0.90625 -0.5 -1.390625 -1.46875q-0.46875 -0.96875 -0.46875 -2.203125q0 -1.609375 0.75 -3.125q0.75 -1.515625 1.9375 -2.25q1.1875 -0.75 2.5625 -0.75q1.765625 0 2.8125 1.09375q1.0625 1.09375 1.0625 2.984375q0 0.734375 -0.140625 1.484375l-7.25 0q-0.03125 0.296875 -0.03125 0.53125q0 1.375 0.625 2.109375q0.640625 0.71875 1.5625 0.71875q0.859375 0 1.6875 -0.5625q0.84375 -0.5625 1.3125 -1.625zm-4.890625 -2.453125l5.53125 0q0.015625 -0.25 0.015625 -0.359375q0 -1.265625 -0.640625 -1.9375q-0.625 -0.671875 -1.625 -0.671875q-1.0625 0 -1.953125 0.75q-0.890625 0.734375 -1.328125 2.21875zm7.3601074 5.796875l4.296875 -5.0l-2.46875 -4.859375l1.859375 0l0.828125 1.765625q0.46875 0.984375 0.84375 1.875l2.84375 -3.640625l2.046875 0l-4.140625 4.984375l2.484375 4.875l-1.859375 0l-0.984375 -2.0q-0.3125 -0.640625 -0.703125 -1.59375l-2.9375 3.59375l-2.109375 0zm13.921875 -1.359375l-0.28125 1.375q-0.609375 0.15625 -1.171875 0.15625q-1.0 0 -1.59375 -0.5q-0.453125 -0.375 -0.453125 -1.015625q0 -0.3125 0.25 -1.484375l1.1875 -5.71875l-1.328125 0l0.28125 -1.3125l1.328125 0l0.5 -2.421875l1.921875 -1.15625l-0.75 3.578125l1.65625 0l-0.28125 1.3125l-1.640625 0l-1.140625 5.4375q-0.21875 1.046875 -0.21875 1.25q0 0.296875 0.171875 0.453125q0.171875 0.15625 0.5625 0.15625q0.5625 0 1.0 -0.109375zm10.366608 0l-0.28125 1.375q-0.609375 0.15625 -1.171875 0.15625q-1.0 0 -1.59375 -0.5q-0.453125 -0.375 -0.453125 -1.015625q0 -0.3125 0.25 -1.484375l1.1875 -5.71875l-1.328125 0l0.28125 -1.3125l1.328125 0l0.5 -2.421875l1.921875 -1.15625l-0.75 3.578125l1.65625 0l-0.28125 1.3125l-1.640625 0l-1.140625 5.4375q-0.21875 1.046875 -0.21875 1.25q0 0.296875 0.171875 0.453125q0.171875 0.15625 0.5625 0.15625q0.5625 0 1.0 -0.109375zm8.495789 -1.984375l1.625 0.15625q-0.359375 1.21875 -1.625 2.3125q-1.265625 1.09375 -3.015625 1.09375q-1.09375 0 -2.015625 -0.5q-0.90625 -0.5 -1.390625 -1.46875q-0.46875 -0.96875 -0.46875 -2.203125q0 -1.609375 0.75 -3.125q0.75 -1.515625 1.9375 -2.25q1.1875 -0.75 2.5625 -0.75q1.765625 0 2.8125 1.09375q1.0625 1.09375 1.0625 2.984375q0 0.734375 -0.140625 1.484375l-7.25 0q-0.03125 0.296875 -0.03125 0.53125q0 1.375 0.625 2.109375q0.640625 0.71875 1.5625 0.71875q0.859375 0 1.6875 -0.5625q0.84375 -0.5625 1.3125 -1.625zm-4.890625 -2.453125l5.53125 0q0.015625 -0.25 0.015625 -0.359375q0 -1.265625 -0.640625 -1.9375q-0.625 -0.671875 -1.625 -0.671875q-1.0625 0 -1.953125 0.75q-0.890625 0.734375 -1.328125 2.21875zm7.3601074 5.796875l4.296875 -5.0l-2.46875 -4.859375l1.859375 0l0.828125 1.765625q0.46875 0.984375 0.84375 1.875l2.84375 -3.640625l2.046875 0l-4.140625 4.984375l2.484375 4.875l-1.859375 0l-0.984375 -2.0q-0.3125 -0.640625 -0.703125 -1.59375l-2.9375 3.59375l-2.109375 0zm13.921875 -1.359375l-0.28125 1.375q-0.609375 0.15625 -1.171875 0.15625q-1.0 0 -1.59375 -0.5q-0.453125 -0.375 -0.453125 -1.015625q0 -0.3125 0.25 -1.484375l1.1875 -5.71875l-1.328125 0l0.28125 -1.3125l1.328125 0l0.5 -2.421875l1.921875 -1.15625l-0.75 3.578125l1.65625 0l-0.28125 1.3125l-1.640625 0l-1.140625 5.4375q-0.21875 1.046875 -0.21875 1.25q0 0.296875 0.171875 0.453125q0.171875 0.15625 0.5625 0.15625q0.5625 0 1.0 -0.109375zm7.9020386 0.140625q-0.875 0.75 -1.6875 1.09375q-0.8125 0.34375 -1.71875 0.34375q-1.375 0 -2.21875 -0.796875q-0.828125 -0.796875 -0.828125 -2.0625q0 -0.8125 0.375 -1.453125q0.390625 -0.640625 1.0 -1.015625q0.625 -0.390625 1.53125 -0.5625q0.5625 -0.109375 2.140625 -0.171875q1.578125 -0.0625 2.265625 -0.328125q0.203125 -0.6875 0.203125 -1.140625q0 -0.59375 -0.4375 -0.921875q-0.578125 -0.46875 -1.703125 -0.46875q-1.046875 0 -1.734375 0.46875q-0.671875 0.46875 -0.96875 1.328125l-1.703125 -0.140625q0.515625 -1.46875 1.640625 -2.25q1.140625 -0.78125 2.859375 -0.78125q1.828125 0 2.890625 0.875q0.8125 0.65625 0.8125 1.6875q0 0.796875 -0.234375 1.828125l-0.546875 2.453125q-0.25 1.171875 -0.25 1.890625q0 0.46875 0.203125 1.34375l-1.703125 0q-0.140625 -0.484375 -0.1875 -1.21875zm0.609375 -3.765625q-0.34375 0.125 -0.75 0.203125q-0.40625 0.078125 -1.34375 0.15625q-1.46875 0.140625 -2.078125 0.34375q-0.59375 0.1875 -0.90625 0.625q-0.3125 0.4375 -0.3125 0.96875q0 0.703125 0.484375 1.15625q0.5 0.453125 1.390625 0.453125q0.84375 0 1.609375 -0.4375q0.765625 -0.4375 1.203125 -1.21875q0.453125 -0.796875 0.703125 -2.25zm3.110077 4.984375l2.0625 -9.859375l1.484375 0l-0.421875 2.015625q0.765625 -1.140625 1.484375 -1.6875q0.734375 -0.546875 1.5 -0.546875q0.5 0 1.234375 0.359375l-0.6875 1.5625q-0.4375 -0.3125 -0.953125 -0.3125q-0.875 0 -1.8125 0.984375q-0.921875 0.984375 -1.453125 3.53125l-0.828125 3.953125l-1.609375 0zm13.4627075 -3.34375l1.625 0.15625q-0.359375 1.21875 -1.625 2.3125q-1.265625 1.09375 -3.015625 1.09375q-1.09375 0 -2.015625 -0.5q-0.90625 -0.5 -1.390625 -1.46875q-0.46875 -0.96875 -0.46875 -2.203125q0 -1.609375 0.75 -3.125q0.75 -1.515625 1.9375 -2.25q1.1875 -0.75 2.5625 -0.75q1.765625 0 2.8125 1.09375q1.0625 1.09375 1.0625 2.984375q0 0.734375 -0.140625 1.484375l-7.25 0q-0.03125 0.296875 -0.03125 0.53125q0 1.375 0.625 2.109375q0.640625 0.71875 1.5625 0.71875q0.859375 0 1.6875 -0.5625q0.84375 -0.5625 1.3125 -1.625zm-4.890625 -2.453125l5.53125 0q0.015625 -0.25 0.015625 -0.359375q0 -1.265625 -0.640625 -1.9375q-0.625 -0.671875 -1.625 -0.671875q-1.0625 0 -1.953125 0.75q-0.890625 0.734375 -1.328125 2.21875zm14.672607 4.578125q-0.875 0.75 -1.6875 1.09375q-0.8125 0.34375 -1.71875 0.34375q-1.375 0 -2.21875 -0.796875q-0.828125 -0.796875 -0.828125 -2.0625q0 -0.8125 0.375 -1.453125q0.390625 -0.640625 1.0 -1.015625q0.625 -0.390625 1.53125 -0.5625q0.5625 -0.109375 2.140625 -0.171875q1.578125 -0.0625 2.265625 -0.328125q0.203125 -0.6875 0.203125 -1.140625q0 -0.59375 -0.4375 -0.921875q-0.578125 -0.46875 -1.703125 -0.46875q-1.046875 0 -1.734375 0.46875q-0.671875 0.46875 -0.96875 1.328125l-1.703125 -0.140625q0.515625 -1.46875 1.640625 -2.25q1.140625 -0.78125 2.859375 -0.78125q1.828125 0 2.890625 0.875q0.8125 0.65625 0.8125 1.6875q0 0.796875 -0.234375 1.828125l-0.546875 2.453125q-0.25 1.171875 -0.25 1.890625q0 0.46875 0.203125 1.34375l-1.703125 0q-0.140625 -0.484375 -0.1875 -1.21875zm0.609375 -3.765625q-0.34375 0.125 -0.75 0.203125q-0.40625 0.078125 -1.34375 0.15625q-1.46875 0.140625 -2.078125 0.34375q-0.59375 0.1875 -0.90625 0.625q-0.3125 0.4375 -0.3125 0.96875q0 0.703125 0.484375 1.15625q0.5 0.453125 1.390625 0.453125q0.84375 0 1.609375 -0.4375q0.765625 -0.4375 1.203125 -1.21875q0.453125 -0.796875 0.703125 -2.25z" fill-rule="nonzero"></path><path fill="#000000" fill-opacity="0.0" d="m652.63257 235.49344l306.99213 0l0 100.47244l-306.99213 0z" fill-rule="nonzero"></path><path stroke="#000000" stroke-width="2.0" stroke-linejoin="round" stroke-linecap="butt" d="m652.63257 235.49344l306.99213 0l0 100.47244l-306.99213 0z" fill-rule="nonzero"></path><path fill="#000000" fill-opacity="0.0" d="m750.62994 289.63254l103.24408 0l0 24.188995l-103.24408 0z" fill-rule="nonzero"></path><path fill="#000000" d="m762.7019 316.55255l0 -13.59375l2.71875 0l3.21875 9.625q0.4375 1.34375 0.640625 2.015625q0.234375 -0.75 0.734375 -2.1875l3.25 -9.453125l2.421875 0l0 13.59375l-1.734375 0l0 -11.390625l-3.953125 11.390625l-1.625 0l-3.9375 -11.578125l0 11.578125l-1.734375 0zm22.134583 -3.171875l1.71875 0.21875q-0.40625 1.5 -1.515625 2.34375q-1.09375 0.828125 -2.8125 0.828125q-2.15625 0 -3.421875 -1.328125q-1.265625 -1.328125 -1.265625 -3.734375q0 -2.484375 1.265625 -3.859375q1.28125 -1.375 3.328125 -1.375q1.984375 0 3.234375 1.34375q1.25 1.34375 1.25 3.796875q0 0.140625 -0.015625 0.4375l-7.34375 0q0.09375 1.625 0.921875 2.484375q0.828125 0.859375 2.0625 0.859375q0.90625 0 1.546875 -0.46875q0.65625 -0.484375 1.046875 -1.546875zm-5.484375 -2.703125l5.5 0q-0.109375 -1.234375 -0.625 -1.859375q-0.796875 -0.96875 -2.078125 -0.96875q-1.140625 0 -1.9375 0.78125q-0.78125 0.765625 -0.859375 2.046875zm12.766357 4.375l0.234375 1.484375q-0.703125 0.140625 -1.265625 0.140625q-0.90625 0 -1.40625 -0.28125q-0.5 -0.296875 -0.703125 -0.75q-0.203125 -0.46875 -0.203125 -1.984375l0 -5.65625l-1.234375 0l0 -1.3125l1.234375 0l0 -2.4375l1.65625 -1.0l0 3.4375l1.6875 0l0 1.3125l-1.6875 0l0 5.75q0 0.71875 0.078125 0.921875q0.09375 0.203125 0.296875 0.328125q0.203125 0.125 0.578125 0.125q0.265625 0 0.734375 -0.078125zm7.9645386 0.28125q-0.9375 0.796875 -1.796875 1.125q-0.859375 0.3125 -1.84375 0.3125q-1.609375 0 -2.484375 -0.78125q-0.875 -0.796875 -0.875 -2.03125q0 -0.734375 0.328125 -1.328125q0.328125 -0.59375 0.859375 -0.953125q0.53125 -0.359375 1.203125 -0.546875q0.5 -0.140625 1.484375 -0.25q2.03125 -0.25 2.984375 -0.578125q0 -0.34375 0 -0.4375q0 -1.015625 -0.46875 -1.4375q-0.640625 -0.5625 -1.90625 -0.5625q-1.171875 0 -1.734375 0.40625q-0.5625 0.40625 -0.828125 1.46875l-1.640625 -0.234375q0.234375 -1.046875 0.734375 -1.6875q0.515625 -0.640625 1.46875 -0.984375q0.96875 -0.359375 2.25 -0.359375q1.265625 0 2.046875 0.296875q0.78125 0.296875 1.15625 0.75q0.375 0.453125 0.515625 1.140625q0.09375 0.421875 0.09375 1.53125l0 2.234375q0 2.328125 0.09375 2.953125q0.109375 0.609375 0.4375 1.171875l-1.75 0q-0.265625 -0.515625 -0.328125 -1.21875zm-0.140625 -3.71875q-0.90625 0.359375 -2.734375 0.625q-1.03125 0.140625 -1.453125 0.328125q-0.421875 0.1875 -0.65625 0.546875q-0.234375 0.359375 -0.234375 0.796875q0 0.671875 0.5 1.125q0.515625 0.4375 1.484375 0.4375q0.96875 0 1.71875 -0.421875q0.75 -0.4375 1.109375 -1.15625q0.265625 -0.578125 0.265625 -1.671875l0 -0.609375zm8.188232 4.9375l-5.28125 -13.59375l1.953125 0l3.53125 9.875q0.4375 1.1875 0.71875 2.21875q0.3125 -1.109375 0.734375 -2.21875l3.671875 -9.875l1.84375 0l-5.328125 13.59375l-1.84375 0zm8.3497925 -11.6875l0 -1.90625l1.671875 0l0 1.90625l-1.671875 0zm0 11.6875l0 -9.859375l1.671875 0l0 9.859375l-1.671875 0zm10.879211 -3.171875l1.71875 0.21875q-0.40625 1.5 -1.515625 2.34375q-1.09375 0.828125 -2.8125 0.828125q-2.15625 0 -3.421875 -1.328125q-1.265625 -1.328125 -1.265625 -3.734375q0 -2.484375 1.265625 -3.859375q1.28125 -1.375 3.328125 -1.375q1.984375 0 3.234375 1.34375q1.25 1.34375 1.25 3.796875q0 0.140625 -0.015625 0.4375l-7.34375 0q0.09375 1.625 0.921875 2.484375q0.828125 0.859375 2.0625 0.859375q0.90625 0 1.546875 -0.46875q0.65625 -0.484375 1.046875 -1.546875zm-5.484375 -2.703125l5.5 0q-0.109375 -1.234375 -0.625 -1.859375q-0.796875 -0.96875 -2.078125 -0.96875q-1.140625 0 -1.9375 0.78125q-0.78125 0.765625 -0.859375 2.046875zm10.938232 5.875l-3.015625 -9.859375l1.71875 0l1.5625 5.6875l0.59375 2.125q0.03125 -0.15625 0.5 -2.03125l1.578125 -5.78125l1.71875 0l1.46875 5.71875l0.484375 1.890625l0.578125 -1.90625l1.6875 -5.703125l1.625 0l-3.078125 9.859375l-1.734375 0l-1.578125 -5.90625l-0.375 -1.671875l-2.0 7.578125l-1.734375 0z" fill-rule="nonzero"></path><path fill="#000000" fill-opacity="0.0" d="m667.1522 248.45407l277.95276 0l0 33.73227l-277.95276 0z" fill-rule="nonzero"></path><path stroke="#000000" stroke-width="1.0" stroke-linejoin="round" stroke-linecap="butt" stroke-dasharray="4.0,3.0" d="m667.1522 248.45407l277.95276 0l0 33.73227l-277.95276 0z" fill-rule="nonzero"></path><path fill="#000000" d="m768.5921 275.37405l2.84375 -13.59375l2.234375 0l1.375 8.8125q0.265625 1.734375 0.359375 3.328125q0.5625 -1.375 1.890625 -3.71875l4.765625 -8.421875l2.265625 0l-2.828125 13.59375l-1.796875 0l1.421875 -6.609375q0.484375 -2.296875 1.40625 -5.140625q-0.578125 1.328125 -1.4375 2.859375l-5.078125 8.890625l-1.75 0l-1.359375 -8.71875q-0.1875 -1.203125 -0.265625 -2.796875q-0.234375 1.796875 -0.453125 2.84375l-1.8125 8.671875l-1.78125 0zm22.587646 -3.34375l1.625 0.15625q-0.359375 1.21875 -1.625 2.3125q-1.265625 1.09375 -3.015625 1.09375q-1.09375 0 -2.015625 -0.5q-0.90625 -0.5 -1.390625 -1.46875q-0.46875 -0.96875 -0.46875 -2.203125q0 -1.609375 0.75 -3.125q0.75 -1.515625 1.9375 -2.25q1.1875 -0.75 2.5625 -0.75q1.765625 0 2.8125 1.09375q1.0625 1.09375 1.0625 2.984375q0 0.734375 -0.140625 1.484375l-7.25 0q-0.03125 0.296875 -0.03125 0.53125q0 1.375 0.625 2.109375q0.640625 0.71875 1.5625 0.71875q0.859375 0 1.6875 -0.5625q0.84375 -0.5625 1.3125 -1.625zm-4.890625 -2.453125l5.53125 0q0.015625 -0.25 0.015625 -0.359375q0 -1.265625 -0.640625 -1.9375q-0.625 -0.671875 -1.625 -0.671875q-1.0625 0 -1.953125 0.75q-0.890625 0.734375 -1.328125 2.21875zm11.953857 4.4375l-0.28125 1.375q-0.609375 0.15625 -1.171875 0.15625q-1.0 0 -1.59375 -0.5q-0.453125 -0.375 -0.453125 -1.015625q0 -0.3125 0.25 -1.484375l1.1875 -5.71875l-1.328125 0l0.28125 -1.3125l1.328125 0l0.5 -2.421875l1.921875 -1.15625l-0.75 3.578125l1.65625 0l-0.28125 1.3125l-1.640625 0l-1.140625 5.4375q-0.21875 1.046875 -0.21875 1.25q0 0.296875 0.171875 0.453125q0.171875 0.15625 0.5625 0.15625q0.5625 0 1.0 -0.109375zm7.9020386 0.140625q-0.875 0.75 -1.6875 1.09375q-0.8125 0.34375 -1.71875 0.34375q-1.375 0 -2.21875 -0.796875q-0.828125 -0.796875 -0.828125 -2.0625q0 -0.8125 0.375 -1.453125q0.390625 -0.640625 1.0 -1.015625q0.625 -0.390625 1.53125 -0.5625q0.5625 -0.109375 2.140625 -0.171875q1.578125 -0.0625 2.265625 -0.328125q0.203125 -0.6875 0.203125 -1.140625q0 -0.59375 -0.4375 -0.921875q-0.578125 -0.46875 -1.703125 -0.46875q-1.046875 0 -1.734375 0.46875q-0.671875 0.46875 -0.96875 1.328125l-1.703125 -0.140625q0.515625 -1.46875 1.640625 -2.25q1.140625 -0.78125 2.859375 -0.78125q1.828125 0 2.890625 0.875q0.8125 0.65625 0.8125 1.6875q0 0.796875 -0.234375 1.828125l-0.546875 2.453125q-0.25 1.171875 -0.25 1.890625q0 0.46875 0.203125 1.34375l-1.703125 0q-0.140625 -0.484375 -0.1875 -1.21875zm0.609375 -3.765625q-0.34375 0.125 -0.75 0.203125q-0.40625 0.078125 -1.34375 0.15625q-1.46875 0.140625 -2.078125 0.34375q-0.59375 0.1875 -0.90625 0.625q-0.3125 0.4375 -0.3125 0.96875q0 0.703125 0.484375 1.15625q0.5 0.453125 1.390625 0.453125q0.84375 0 1.609375 -0.4375q0.765625 -0.4375 1.203125 -1.21875q0.453125 -0.796875 0.703125 -2.25zm12.230896 3.625l-0.28125 1.375q-0.609375 0.15625 -1.171875 0.15625q-1.0 0 -1.59375 -0.5q-0.453125 -0.375 -0.453125 -1.015625q0 -0.3125 0.25 -1.484375l1.1875 -5.71875l-1.328125 0l0.28125 -1.3125l1.328125 0l0.5 -2.421875l1.921875 -1.15625l-0.75 3.578125l1.65625 0l-0.28125 1.3125l-1.640625 0l-1.140625 5.4375q-0.21875 1.046875 -0.21875 1.25q0 0.296875 0.171875 0.453125q0.171875 0.15625 0.5625 0.15625q0.5625 0 1.0 -0.109375zm8.49585 -1.984375l1.625 0.15625q-0.359375 1.21875 -1.625 2.3125q-1.265625 1.09375 -3.015625 1.09375q-1.09375 0 -2.015625 -0.5q-0.90625 -0.5 -1.390625 -1.46875q-0.46875 -0.96875 -0.46875 -2.203125q0 -1.609375 0.75 -3.125q0.75 -1.515625 1.9375 -2.25q1.1875 -0.75 2.5625 -0.75q1.765625 0 2.8125 1.09375q1.0625 1.09375 1.0625 2.984375q0 0.734375 -0.140625 1.484375l-7.25 0q-0.03125 0.296875 -0.03125 0.53125q0 1.375 0.625 2.109375q0.640625 0.71875 1.5625 0.71875q0.859375 0 1.6875 -0.5625q0.84375 -0.5625 1.3125 -1.625zm-4.890625 -2.453125l5.53125 0q0.015625 -0.25 0.015625 -0.359375q0 -1.265625 -0.640625 -1.9375q-0.625 -0.671875 -1.625 -0.671875q-1.0625 0 -1.953125 0.75q-0.890625 0.734375 -1.328125 2.21875zm7.3600464 5.796875l4.296875 -5.0l-2.46875 -4.859375l1.859375 0l0.828125 1.765625q0.46875 0.984375 0.84375 1.875l2.84375 -3.640625l2.046875 0l-4.140625 4.984375l2.484375 4.875l-1.859375 0l-0.984375 -2.0q-0.3125 -0.640625 -0.703125 -1.59375l-2.9375 3.59375l-2.109375 0zm13.921875 -1.359375l-0.28125 1.375q-0.609375 0.15625 -1.171875 0.15625q-1.0 0 -1.59375 -0.5q-0.453125 -0.375 -0.453125 -1.015625q0 -0.3125 0.25 -1.484375l1.1875 -5.71875l-1.328125 0l0.28125 -1.3125l1.328125 0l0.5 -2.421875l1.921875 -1.15625l-0.75 3.578125l1.65625 0l-0.28125 1.3125l-1.640625 0l-1.140625 5.4375q-0.21875 1.046875 -0.21875 1.25q0 0.296875 0.171875 0.453125q0.171875 0.15625 0.5625 0.15625q0.5625 0 1.0 -0.109375z" fill-rule="nonzero"></path><path fill="#000000" fill-opacity="0.0" d="m331.51706 235.49344l306.9921 0l0 100.47244l-306.9921 0z" fill-rule="nonzero"></path><path stroke="#000000" stroke-width="2.0" stroke-linejoin="round" stroke-linecap="butt" d="m331.51706 235.49344l306.9921 0l0 100.47244l-306.9921 0z" fill-rule="nonzero"></path><path fill="#000000" fill-opacity="0.0" d="m429.51443 289.63254l103.24411 0l0 24.188995l-103.24411 0z" fill-rule="nonzero"></path><path fill="#000000" d="m447.69827 316.55255l0 -12.0l-4.46875 0l0 -1.59375l10.765625 0l0 1.59375l-4.5 0l0 12.0l-1.796875 0zm14.474091 -3.171875l1.71875 0.21875q-0.40625 1.5 -1.515625 2.34375q-1.09375 0.828125 -2.8125 0.828125q-2.15625 0 -3.421875 -1.328125q-1.265625 -1.328125 -1.265625 -3.734375q0 -2.484375 1.265625 -3.859375q1.28125 -1.375 3.328125 -1.375q1.984375 0 3.234375 1.34375q1.25 1.34375 1.25 3.796875q0 0.140625 -0.015625 0.4375l-7.34375 0q0.09375 1.625 0.921875 2.484375q0.828125 0.859375 2.0625 0.859375q0.90625 0 1.546875 -0.46875q0.65625 -0.484375 1.046875 -1.546875zm-5.484375 -2.703125l5.5 0q-0.109375 -1.234375 -0.625 -1.859375q-0.796875 -0.96875 -2.078125 -0.96875q-1.140625 0 -1.9375 0.78125q-0.78125 0.765625 -0.859375 2.046875zm8.000732 5.875l3.59375 -5.125l-3.328125 -4.734375l2.09375 0l1.515625 2.3125q0.421875 0.65625 0.671875 1.109375q0.421875 -0.609375 0.765625 -1.09375l1.65625 -2.328125l1.984375 0l-3.390625 4.640625l3.65625 5.21875l-2.046875 0l-2.03125 -3.0625l-0.53125 -0.828125l-2.59375 3.890625l-2.015625 0zm14.09375 -1.5l0.234375 1.484375q-0.703125 0.140625 -1.265625 0.140625q-0.90625 0 -1.40625 -0.28125q-0.5 -0.296875 -0.703125 -0.75q-0.203125 -0.46875 -0.203125 -1.984375l0 -5.65625l-1.234375 0l0 -1.3125l1.234375 0l0 -2.4375l1.65625 -1.0l0 3.4375l1.6875 0l0 1.3125l-1.6875 0l0 5.75q0 0.71875 0.078125 0.921875q0.09375 0.203125 0.296875 0.328125q0.203125 0.125 0.578125 0.125q0.265625 0 0.734375 -0.078125zm5.6364136 1.5l-5.28125 -13.59375l1.953125 0l3.53125 9.875q0.4375 1.1875 0.71875 2.21875q0.3125 -1.109375 0.734375 -2.21875l3.671875 -9.875l1.84375 0l-5.328125 13.59375l-1.84375 0zm8.349823 -11.6875l0 -1.90625l1.671875 0l0 1.90625l-1.671875 0zm0 11.6875l0 -9.859375l1.671875 0l0 9.859375l-1.671875 0zm10.879211 -3.171875l1.71875 0.21875q-0.40625 1.5 -1.515625 2.34375q-1.09375 0.828125 -2.8125 0.828125q-2.15625 0 -3.421875 -1.328125q-1.265625 -1.328125 -1.265625 -3.734375q0 -2.484375 1.265625 -3.859375q1.28125 -1.375 3.328125 -1.375q1.984375 0 3.234375 1.34375q1.25 1.34375 1.25 3.796875q0 0.140625 -0.015625 0.4375l-7.34375 0q0.09375 1.625 0.921875 2.484375q0.828125 0.859375 2.0625 0.859375q0.90625 0 1.546875 -0.46875q0.65625 -0.484375 1.046875 -1.546875zm-5.484375 -2.703125l5.5 0q-0.109375 -1.234375 -0.625 -1.859375q-0.796875 -0.96875 -2.078125 -0.96875q-1.140625 0 -1.9375 0.78125q-0.78125 0.765625 -0.859375 2.046875zm10.938202 5.875l-3.015625 -9.859375l1.71875 0l1.5625 5.6875l0.59375 2.125q0.03125 -0.15625 0.5 -2.03125l1.578125 -5.78125l1.71875 0l1.46875 5.71875l0.484375 1.890625l0.578125 -1.90625l1.6875 -5.703125l1.625 0l-3.078125 9.859375l-1.734375 0l-1.578125 -5.90625l-0.375 -1.671875l-2.0 7.578125l-1.734375 0z" fill-rule="nonzero"></path><path fill="#000000" fill-opacity="0.0" d="m346.03674 248.45407l277.95276 0l0 33.73227l-277.95276 0z" fill-rule="nonzero"></path><path stroke="#000000" stroke-width="1.0" stroke-linejoin="round" stroke-linecap="butt" stroke-dasharray="4.0,3.0" d="m346.03674 248.45407l277.95276 0l0 33.73227l-277.95276 0z" fill-rule="nonzero"></path><path fill="#000000" d="m402.38458 275.37405l2.84375 -13.59375l2.234375 0l1.375 8.8125q0.265625 1.734375 0.359375 3.328125q0.5625 -1.375 1.890625 -3.71875l4.765625 -8.421875l2.265625 0l-2.828125 13.59375l-1.796875 0l1.421875 -6.609375q0.484375 -2.296875 1.40625 -5.140625q-0.578125 1.328125 -1.4375 2.859375l-5.078125 8.890625l-1.75 0l-1.359375 -8.71875q-0.1875 -1.203125 -0.265625 -2.796875q-0.234375 1.796875 -0.453125 2.84375l-1.8125 8.671875l-1.78125 0zm21.993927 -1.21875q-0.875 0.75 -1.6875 1.09375q-0.8125 0.34375 -1.71875 0.34375q-1.375 0 -2.21875 -0.796875q-0.828125 -0.796875 -0.828125 -2.0625q0 -0.8125 0.375 -1.453125q0.390625 -0.640625 1.0 -1.015625q0.625 -0.390625 1.53125 -0.5625q0.5625 -0.109375 2.140625 -0.171875q1.578125 -0.0625 2.265625 -0.328125q0.203125 -0.6875 0.203125 -1.140625q0 -0.59375 -0.4375 -0.921875q-0.578125 -0.46875 -1.703125 -0.46875q-1.046875 0 -1.734375 0.46875q-0.671875 0.46875 -0.96875 1.328125l-1.703125 -0.140625q0.515625 -1.46875 1.640625 -2.25q1.140625 -0.78125 2.859375 -0.78125q1.828125 0 2.890625 0.875q0.8125 0.65625 0.8125 1.6875q0 0.796875 -0.234375 1.828125l-0.546875 2.453125q-0.25 1.171875 -0.25 1.890625q0 0.46875 0.203125 1.34375l-1.703125 0q-0.140625 -0.484375 -0.1875 -1.21875zm0.609375 -3.765625q-0.34375 0.125 -0.75 0.203125q-0.40625 0.078125 -1.34375 0.15625q-1.46875 0.140625 -2.078125 0.34375q-0.59375 0.1875 -0.90625 0.625q-0.3125 0.4375 -0.3125 0.96875q0 0.703125 0.484375 1.15625q0.5 0.453125 1.390625 0.453125q0.84375 0 1.609375 -0.4375q0.765625 -0.4375 1.203125 -1.21875q0.453125 -0.796875 0.703125 -2.25zm3.1101074 4.984375l2.0625 -9.859375l1.484375 0l-0.421875 2.015625q0.765625 -1.140625 1.484375 -1.6875q0.734375 -0.546875 1.5 -0.546875q0.5 0 1.234375 0.359375l-0.6875 1.5625q-0.4375 -0.3125 -0.953125 -0.3125q-0.875 0 -1.8125 0.984375q-0.921875 0.984375 -1.453125 3.53125l-0.828125 3.953125l-1.609375 0zm6.243927 0l2.84375 -13.59375l1.671875 0l-1.765625 8.421875l4.890625 -4.6875l2.21875 0l-4.203125 3.6875l2.546875 6.171875l-1.84375 0l-1.953125 -5.0625l-2.046875 1.765625l-0.6875 3.296875l-1.671875 0zm15.953125 -1.421875q-1.453125 1.640625 -3.015625 1.640625q-1.40625 0 -2.34375 -1.03125q-0.921875 -1.03125 -0.921875 -3.0q0 -1.796875 0.734375 -3.28125q0.75 -1.5 1.84375 -2.234375q1.109375 -0.75 2.234375 -0.75q1.828125 0 2.765625 1.78125l1.109375 -5.296875l1.671875 0l-2.828125 13.59375l-1.546875 0l0.296875 -1.421875zm-4.609375 -2.703125q0 1.03125 0.203125 1.625q0.203125 0.59375 0.6875 0.984375q0.5 0.390625 1.1875 0.390625q1.140625 0 2.0625 -1.1875q1.25 -1.578125 1.25 -3.890625q0 -1.171875 -0.609375 -1.828125q-0.609375 -0.65625 -1.546875 -0.65625q-0.59375 0 -1.09375 0.265625q-0.5 0.265625 -0.984375 0.921875q-0.484375 0.640625 -0.828125 1.640625q-0.328125 0.984375 -0.328125 1.734375zm8.625702 0.390625q0 -2.890625 1.703125 -4.78125q1.40625 -1.5625 3.671875 -1.5625q1.78125 0 2.875 1.125q1.09375 1.109375 1.09375 3.0q0 1.6875 -0.6875 3.15625q-0.6875 1.453125 -1.953125 2.234375q-1.265625 0.78125 -2.671875 0.78125q-1.15625 0 -2.09375 -0.484375q-0.9375 -0.5 -1.4375 -1.390625q-0.5 -0.90625 -0.5 -2.078125zm1.6875 -0.171875q0 1.390625 0.65625 2.109375q0.671875 0.71875 1.703125 0.71875q0.546875 0 1.0625 -0.21875q0.53125 -0.21875 0.984375 -0.65625q0.46875 -0.453125 0.78125 -1.015625q0.328125 -0.578125 0.515625 -1.234375q0.28125 -0.921875 0.28125 -1.765625q0 -1.328125 -0.671875 -2.0625q-0.671875 -0.75 -1.6875 -0.75q-0.78125 0 -1.4375 0.375q-0.65625 0.375 -1.1875 1.109375q-0.515625 0.71875 -0.765625 1.6875q-0.234375 0.953125 -0.234375 1.703125zm10.266357 3.90625l-1.03125 -9.859375l1.625 0l0.4375 4.4375l0.1875 2.484375q0.015625 0.28125 0.046875 1.125q0.28125 -0.953125 0.46875 -1.453125q0.203125 -0.515625 0.625 -1.453125l2.34375 -5.140625l1.828125 0l0.328125 4.9375q0.078125 1.125 0.09375 2.984375q0.46875 -1.234375 1.515625 -3.4375l2.109375 -4.484375l1.6875 0l-4.8125 9.859375l-1.75 0l-0.375 -5.78125q-0.03125 -0.53125 -0.046875 -2.09375q-0.390625 0.984375 -0.90625 2.140625l-2.609375 5.734375l-1.765625 0zm11.597931 0l2.0625 -9.859375l1.53125 0l-0.375 1.71875q1.0 -1.0 1.859375 -1.46875q0.859375 -0.46875 1.765625 -0.46875q1.203125 0 1.875 0.65625q0.6875 0.640625 0.6875 1.734375q0 0.546875 -0.25 1.71875l-1.25 5.96875l-1.671875 0l1.3125 -6.25q0.1875 -0.90625 0.1875 -1.34375q0 -0.484375 -0.34375 -0.78125q-0.328125 -0.3125 -0.96875 -0.3125q-1.296875 0 -2.3125 0.921875q-1.0 0.921875 -1.46875 3.1875l-0.953125 4.578125l-1.6875 0zm22.215271 -1.21875q-0.875 0.75 -1.6875 1.09375q-0.8125 0.34375 -1.71875 0.34375q-1.375 0 -2.21875 -0.796875q-0.828125 -0.796875 -0.828125 -2.0625q0 -0.8125 0.375 -1.453125q0.390625 -0.640625 1.0 -1.015625q0.625 -0.390625 1.53125 -0.5625q0.5625 -0.109375 2.140625 -0.171875q1.578125 -0.0625 2.265625 -0.328125q0.203125 -0.6875 0.203125 -1.140625q0 -0.59375 -0.4375 -0.921875q-0.578125 -0.46875 -1.703125 -0.46875q-1.046875 0 -1.734375 0.46875q-0.671875 0.46875 -0.96875 1.328125l-1.703125 -0.140625q0.515625 -1.46875 1.640625 -2.25q1.140625 -0.78125 2.859375 -0.78125q1.828125 0 2.890625 0.875q0.8125 0.65625 0.8125 1.6875q0 0.796875 -0.234375 1.828125l-0.546875 2.453125q-0.25 1.171875 -0.25 1.890625q0 0.46875 0.203125 1.34375l-1.703125 0q-0.140625 -0.484375 -0.1875 -1.21875zm0.609375 -3.765625q-0.34375 0.125 -0.75 0.203125q-0.40625 0.078125 -1.34375 0.15625q-1.46875 0.140625 -2.078125 0.34375q-0.59375 0.1875 -0.90625 0.625q-0.3125 0.4375 -0.3125 0.96875q0 0.703125 0.484375 1.15625q0.5 0.453125 1.390625 0.453125q0.84375 0 1.609375 -0.4375q0.765625 -0.4375 1.203125 -1.21875q0.453125 -0.796875 0.703125 -2.25zm3.2663574 1.609375l1.6875 -0.09375q0 0.71875 0.21875 1.234375q0.21875 0.515625 0.8125 0.84375q0.609375 0.3125 1.40625 0.3125q1.109375 0 1.671875 -0.4375q0.5625 -0.453125 0.5625 -1.046875q0 -0.4375 -0.34375 -0.828125q-0.34375 -0.390625 -1.671875 -0.953125q-1.328125 -0.578125 -1.703125 -0.8125q-0.625 -0.375 -0.9375 -0.890625q-0.3125 -0.515625 -0.3125 -1.1875q0 -1.171875 0.921875 -2.0q0.9375 -0.84375 2.609375 -0.84375q1.84375 0 2.8125 0.859375q0.96875 0.859375 1.015625 2.265625l-1.640625 0.109375q-0.046875 -0.890625 -0.640625 -1.40625q-0.59375 -0.53125 -1.671875 -0.53125q-0.875 0 -1.359375 0.40625q-0.484375 0.390625 -0.484375 0.859375q0 0.46875 0.421875 0.8125q0.28125 0.25 1.4375 0.75q1.9375 0.828125 2.4375 1.3125q0.796875 0.765625 0.796875 1.875q0 0.734375 -0.453125 1.4375q-0.453125 0.703125 -1.375 1.125q-0.921875 0.421875 -2.171875 0.421875q-1.703125 0 -2.90625 -0.84375q-1.203125 -0.84375 -1.140625 -2.75zm14.527039 3.375l2.84375 -13.59375l1.8125 0l-1.171875 5.640625l7.046875 0l1.171875 -5.640625l1.828125 0l-2.84375 13.59375l-1.8125 0l1.328125 -6.40625l-7.03125 0l-1.359375 6.40625l-1.8125 0zm16.988586 0l2.515625 -12.046875l-4.46875 0l0.328125 -1.546875l10.703125 0l-0.3125 1.546875l-4.4375 0l-2.515625 12.046875l-1.8125 0zm7.911621 0l2.84375 -13.59375l2.234375 0l1.375 8.8125q0.265625 1.734375 0.359375 3.328125q0.5625 -1.375 1.890625 -3.71875l4.765625 -8.421875l2.265625 0l-2.828125 13.59375l-1.796875 0l1.421875 -6.609375q0.484375 -2.296875 1.40625 -5.140625q-0.578125 1.328125 -1.4375 2.859375l-5.078125 8.890625l-1.75 0l-1.359375 -8.71875q-0.1875 -1.203125 -0.265625 -2.796875q-0.234375 1.796875 -0.453125 2.84375l-1.8125 8.671875l-1.78125 0zm15.4782715 0l2.828125 -13.59375l1.828125 0l-2.515625 12.046875l7.0625 0l-0.328125 1.546875l-8.875 0z" fill-rule="nonzero"></path><path fill="#000000" fill-opacity="0.0" d="m667.52496 16.45407l277.9527 0l0 39.433067l-277.9527 0z" fill-rule="nonzero"></path><path stroke="#000000" stroke-width="2.0" stroke-linejoin="round" stroke-linecap="butt" d="m667.52496 16.45407l277.9527 0l0 39.433067l-277.9527 0z" fill-rule="nonzero"></path><path fill="#000000" d="m773.58234 43.090603l0 -12.0l-4.46875 0l0 -1.59375l10.765625 0l0 1.59375l-4.5 0l0 12.0l-1.796875 0zm7.739746 -11.6875l0 -1.90625l1.671875 0l0 1.90625l-1.671875 0zm0 11.6875l0 -9.859375l1.671875 0l0 9.859375l-1.671875 0zm7.7854614 -1.5l0.234375 1.484375q-0.703125 0.140625 -1.265625 0.140625q-0.90625 0 -1.40625 -0.28125q-0.5 -0.296875 -0.703125 -0.75q-0.203125 -0.46875 -0.203125 -1.984375l0 -5.65625l-1.234375 0l0 -1.3125l1.234375 0l0 -2.4375l1.65625 -1.0l0 3.4375l1.6875 0l0 1.3125l-1.6875 0l0 5.75q0 0.71875 0.078125 0.921875q0.09375 0.203125 0.296875 0.328125q0.203125 0.125 0.578125 0.125q0.265625 0 0.734375 -0.078125zm1.4957886 1.5l0 -13.59375l1.671875 0l0 13.59375l-1.671875 0zm10.926086 -3.171875l1.71875 0.21875q-0.40625 1.5 -1.515625 2.34375q-1.09375 0.828125 -2.8125 0.828125q-2.15625 0 -3.421875 -1.328125q-1.265625 -1.328125 -1.265625 -3.734375q0 -2.484375 1.265625 -3.859375q1.28125 -1.375 3.328125 -1.375q1.984375 0 3.234375 1.34375q1.25 1.34375 1.25 3.796875q0 0.140625 -0.015625 0.4375l-7.34375 0q0.09375 1.625 0.921875 2.484375q0.828125 0.859375 2.0625 0.859375q0.90625 0 1.546875 -0.46875q0.65625 -0.484375 1.046875 -1.546875zm-5.484375 -2.703125l5.5 0q-0.109375 -1.234375 -0.625 -1.859375q-0.796875 -0.96875 -2.078125 -0.96875q-1.140625 0 -1.9375 0.78125q-0.78125 0.765625 -0.859375 2.046875zm13.219421 5.875l-5.28125 -13.59375l1.953125 0l3.53125 9.875q0.4375 1.1875 0.71875 2.21875q0.3125 -1.109375 0.734375 -2.21875l3.671875 -9.875l1.84375 0l-5.328125 13.59375l-1.84375 0zm8.3498535 -11.6875l0 -1.90625l1.671875 0l0 1.90625l-1.671875 0zm0 11.6875l0 -9.859375l1.671875 0l0 9.859375l-1.671875 0zm10.879211 -3.171875l1.71875 0.21875q-0.40625 1.5 -1.515625 2.34375q-1.09375 0.828125 -2.8125 0.828125q-2.15625 0 -3.421875 -1.328125q-1.265625 -1.328125 -1.265625 -3.734375q0 -2.484375 1.265625 -3.859375q1.28125 -1.375 3.328125 -1.375q1.984375 0 3.234375 1.34375q1.25 1.34375 1.25 3.796875q0 0.140625 -0.015625 0.4375l-7.34375 0q0.09375 1.625 0.921875 2.484375q0.828125 0.859375 2.0625 0.859375q0.90625 0 1.546875 -0.46875q0.65625 -0.484375 1.046875 -1.546875zm-5.484375 -2.703125l5.5 0q-0.109375 -1.234375 -0.625 -1.859375q-0.796875 -0.96875 -2.078125 -0.96875q-1.140625 0 -1.9375 0.78125q-0.78125 0.765625 -0.859375 2.046875zm10.938171 5.875l-3.015625 -9.859375l1.71875 0l1.5625 5.6875l0.59375 2.125q0.03125 -0.15625 0.5 -2.03125l1.578125 -5.78125l1.71875 0l1.46875 5.71875l0.484375 1.890625l0.578125 -1.90625l1.6875 -5.703125l1.625 0l-3.078125 9.859375l-1.734375 0l-1.578125 -5.90625l-0.375 -1.671875l-2.0 7.578125l-1.734375 0z" fill-rule="nonzero"></path><path fill="#000000" fill-opacity="0.0" d="m4.632546 235.49344l306.99213 0l0 100.47244l-306.99213 0z" fill-rule="nonzero"></path><path stroke="#000000" stroke-width="2.0" stroke-linejoin="round" stroke-linecap="butt" d="m4.632546 235.49344l306.99213 0l0 100.47244l-306.99213 0z" fill-rule="nonzero"></path><path fill="#000000" fill-opacity="0.0" d="m102.62992 289.63254l103.2441 0l0 24.188995l-103.2441 0z" fill-rule="nonzero"></path><path fill="#000000" d="m121.33299 316.55255l0 -12.0l-4.46875 0l0 -1.59375l10.765625 0l0 1.59375l-4.5 0l0 12.0l-1.796875 0zm7.739731 -11.6875l0 -1.90625l1.671875 0l0 1.90625l-1.671875 0zm0 11.6875l0 -9.859375l1.671875 0l0 9.859375l-1.671875 0zm7.785446 -1.5l0.234375 1.484375q-0.703125 0.140625 -1.265625 0.140625q-0.90625 0 -1.40625 -0.28125q-0.5 -0.296875 -0.703125 -0.75q-0.203125 -0.46875 -0.203125 -1.984375l0 -5.65625l-1.234375 0l0 -1.3125l1.234375 0l0 -2.4375l1.65625 -1.0l0 3.4375l1.6875 0l0 1.3125l-1.6875 0l0 5.75q0 0.71875 0.078125 0.921875q0.09375 0.203125 0.296875 0.328125q0.203125 0.125 0.578125 0.125q0.265625 0 0.734375 -0.078125zm1.4958038 1.5l0 -13.59375l1.671875 0l0 13.59375l-1.671875 0zm10.926071 -3.171875l1.71875 0.21875q-0.40625 1.5 -1.515625 2.34375q-1.09375 0.828125 -2.8125 0.828125q-2.15625 0 -3.421875 -1.328125q-1.265625 -1.328125 -1.265625 -3.734375q0 -2.484375 1.265625 -3.859375q1.28125 -1.375 3.328125 -1.375q1.984375 0 3.234375 1.34375q1.25 1.34375 1.25 3.796875q0 0.140625 -0.015625 0.4375l-7.34375 0q0.09375 1.625 0.921875 2.484375q0.828125 0.859375 2.0625 0.859375q0.90625 0 1.546875 -0.46875q0.65625 -0.484375 1.046875 -1.546875zm-5.484375 -2.703125l5.5 0q-0.109375 -1.234375 -0.625 -1.859375q-0.796875 -0.96875 -2.078125 -0.96875q-1.140625 0 -1.9375 0.78125q-0.78125 0.765625 -0.859375 2.046875zm13.219467 5.875l-5.28125 -13.59375l1.953125 0l3.53125 9.875q0.4375 1.1875 0.71875 2.21875q0.3125 -1.109375 0.734375 -2.21875l3.671875 -9.875l1.84375 0l-5.328125 13.59375l-1.84375 0zm8.349823 -11.6875l0 -1.90625l1.671875 0l0 1.90625l-1.671875 0zm0 11.6875l0 -9.859375l1.671875 0l0 9.859375l-1.671875 0zm10.879196 -3.171875l1.71875 0.21875q-0.40625 1.5 -1.515625 2.34375q-1.09375 0.828125 -2.8125 0.828125q-2.15625 0 -3.421875 -1.328125q-1.265625 -1.328125 -1.265625 -3.734375q0 -2.484375 1.265625 -3.859375q1.28125 -1.375 3.328125 -1.375q1.984375 0 3.234375 1.34375q1.25 1.34375 1.25 3.796875q0 0.140625 -0.015625 0.4375l-7.34375 0q0.09375 1.625 0.921875 2.484375q0.828125 0.859375 2.0625 0.859375q0.90625 0 1.546875 -0.46875q0.65625 -0.484375 1.046875 -1.546875zm-5.484375 -2.703125l5.5 0q-0.109375 -1.234375 -0.625 -1.859375q-0.796875 -0.96875 -2.078125 -0.96875q-1.140625 0 -1.9375 0.78125q-0.78125 0.765625 -0.859375 2.046875zm10.938217 5.875l-3.015625 -9.859375l1.71875 0l1.5625 5.6875l0.59375 2.125q0.03125 -0.15625 0.5 -2.03125l1.578125 -5.78125l1.71875 0l1.46875 5.71875l0.484375 1.890625l0.578125 -1.90625l1.6875 -5.703125l1.625 0l-3.078125 9.859375l-1.734375 0l-1.578125 -5.90625l-0.375 -1.671875l-2.0 7.578125l-1.734375 0z" fill-rule="nonzero"></path><path fill="#000000" fill-opacity="0.0" d="m19.152231 248.45407l277.95276 0l0 33.73227l-277.95276 0z" fill-rule="nonzero"></path><path stroke="#000000" stroke-width="1.0" stroke-linejoin="round" stroke-linecap="butt" stroke-dasharray="4.0,3.0" d="m19.152231 248.45407l277.95276 0l0 33.73227l-277.95276 0z" fill-rule="nonzero"></path><path fill="#000000" d="m121.9995 275.37405l2.515625 -12.046875l-4.46875 0l0.328125 -1.546875l10.703125 0l-0.3125 1.546875l-4.4375 0l-2.515625 12.046875l-1.8125 0zm10.099106 -11.703125l0.40625 -1.890625l1.65625 0l-0.390625 1.890625l-1.671875 0zm-2.453125 11.703125l2.0625 -9.859375l1.6875 0l-2.0625 9.859375l-1.6875 0zm8.144821 -1.359375l-0.28125 1.375q-0.609375 0.15625 -1.171875 0.15625q-1.0 0 -1.59375 -0.5q-0.453125 -0.375 -0.453125 -1.015625q0 -0.3125 0.25 -1.484375l1.1875 -5.71875l-1.328125 0l0.28125 -1.3125l1.328125 0l0.5 -2.421875l1.921875 -1.15625l-0.75 3.578125l1.65625 0l-0.28125 1.3125l-1.640625 0l-1.140625 5.4375q-0.21875 1.046875 -0.21875 1.25q0 0.296875 0.171875 0.453125q0.171875 0.15625 0.5625 0.15625q0.5625 0 1.0 -0.109375zm1.1208038 1.359375l2.84375 -13.59375l1.671875 0l-2.828125 13.59375l-1.6875 0zm11.519821 -3.34375l1.625 0.15625q-0.359375 1.21875 -1.625 2.3125q-1.265625 1.09375 -3.015625 1.09375q-1.09375 0 -2.015625 -0.5q-0.90625 -0.5 -1.390625 -1.46875q-0.46875 -0.96875 -0.46875 -2.203125q0 -1.609375 0.75 -3.125q0.75 -1.515625 1.9375 -2.25q1.1875 -0.75 2.5625 -0.75q1.765625 0 2.8125 1.09375q1.0625 1.09375 1.0625 2.984375q0 0.734375 -0.140625 1.484375l-7.25 0q-0.03125 0.296875 -0.03125 0.53125q0 1.375 0.625 2.109375q0.640625 0.71875 1.5625 0.71875q0.859375 0 1.6875 -0.5625q0.84375 -0.5625 1.3125 -1.625zm-4.890625 -2.453125l5.53125 0q0.015625 -0.25 0.015625 -0.359375q0 -1.265625 -0.640625 -1.9375q-0.625 -0.671875 -1.625 -0.671875q-1.0625 0 -1.953125 0.75q-0.890625 0.734375 -1.328125 2.21875zm15.590271 -5.90625l0.40625 -1.890625l1.65625 0l-0.390625 1.890625l-1.671875 0zm-2.453125 11.703125l2.0625 -9.859375l1.6875 0l-2.0625 9.859375l-1.6875 0zm4.2073364 0l2.0625 -9.859375l1.53125 0l-0.375 1.71875q1.0 -1.0 1.859375 -1.46875q0.859375 -0.46875 1.765625 -0.46875q1.203125 0 1.875 0.65625q0.6875 0.640625 0.6875 1.734375q0 0.546875 -0.25 1.71875l-1.25 5.96875l-1.671875 0l1.3125 -6.25q0.1875 -0.90625 0.1875 -1.34375q0 -0.484375 -0.34375 -0.78125q-0.328125 -0.3125 -0.96875 -0.3125q-1.296875 0 -2.3125 0.921875q-1.0 0.921875 -1.46875 3.1875l-0.953125 4.578125l-1.6875 0zm9.563202 3.78125l2.84375 -13.640625l1.546875 0l-0.28125 1.375q0.859375 -0.890625 1.53125 -1.234375q0.6875 -0.359375 1.453125 -0.359375q1.40625 0 2.328125 1.03125q0.9375 1.015625 0.9375 2.9375q0 1.53125 -0.515625 2.796875q-0.515625 1.265625 -1.265625 2.046875q-0.734375 0.765625 -1.5 1.125q-0.75 0.359375 -1.546875 0.359375q-1.765625 0 -2.75 -1.796875l-1.109375 5.359375l-1.671875 0zm3.3125 -7.8125q0 1.109375 0.15625 1.53125q0.234375 0.609375 0.765625 0.984375q0.53125 0.359375 1.21875 0.359375q1.453125 0 2.34375 -1.625q0.890625 -1.625 0.890625 -3.328125q0 -1.25 -0.609375 -1.921875q-0.59375 -0.6875 -1.484375 -0.6875q-0.640625 0 -1.1875 0.34375q-0.546875 0.328125 -1.015625 1.0q-0.46875 0.671875 -0.78125 1.65625q-0.296875 0.96875 -0.296875 1.6875zm14.610107 2.25q-1.78125 2.0 -3.625 2.0q-1.140625 0 -1.84375 -0.640625q-0.703125 -0.65625 -0.703125 -1.609375q0 -0.625 0.3125 -2.140625l1.1875 -5.6875l1.6875 0l-1.328125 6.3125q-0.15625 0.78125 -0.15625 1.21875q0 0.5625 0.328125 0.875q0.34375 0.296875 1.0 0.296875q0.703125 0 1.375 -0.34375q0.671875 -0.34375 1.15625 -0.921875q0.5 -0.578125 0.796875 -1.375q0.203125 -0.515625 0.484375 -1.796875l0.890625 -4.265625l1.671875 0l-2.0625 9.859375l-1.546875 0l0.375 -1.78125zm7.578827 0.421875l-0.28125 1.375q-0.609375 0.15625 -1.171875 0.15625q-1.0 0 -1.59375 -0.5q-0.453125 -0.375 -0.453125 -1.015625q0 -0.3125 0.25 -1.484375l1.1875 -5.71875l-1.328125 0l0.28125 -1.3125l1.328125 0l0.5 -2.421875l1.921875 -1.15625l-0.75 3.578125l1.65625 0l-0.28125 1.3125l-1.640625 0l-1.140625 5.4375q-0.21875 1.046875 -0.21875 1.25q0 0.296875 0.171875 0.453125q0.171875 0.15625 0.5625 0.15625q0.5625 0 1.0 -0.109375z" fill-rule="nonzero"></path></g></svg>

